<?xml version="1.0"?>
<svg xmlns="http://www.w3.org/2000/svg" version="1.2" baseProfile="tiny" width="800" height="768" viewBox="0 0 800 768" stroke-linecap="round" stroke-linejoin="round">
<g id="map">
<path d="M 681.66 303.03 681.68 303.44 680.13 305.69 677.98 308.39 677.06 309.72 676.84 310.13 675.69 311.9 674.8 314.11 673.31 316.6 673.01 316.77 672.23 316.97 671.05 318 670.16 319.32 669.76 321.09 669.16 321.37 668.56 322.27 667.55 322.8 666.48 324.26 663.87 326.7 659.82 331.8 658.21 333.12 656.84 335.22 655.42 336.52 654.28 338.19 652.79 339.54 651.88 339.95 650.56 341.46 648.77 343.77 646.54 345.73 645.73 346.08 645 345.65 643.99 345.75 643.88 345.97 642.74 346.25 640.46 347.73 637.94 349.95 636.75 350.56 635.46 350.72 634.72 350.22 634.44 350.38 632.02 350.18 628.11 349.56 629.94 346.01 630.03 344.32 629.75 343.33 625.53 344.22 626.34 346.38 625.55 347.93 625.56 348.29 625.22 348.31 623.96 349.79 623.54 350.34 622.48 351.88 621.63 352.45 621.07 352.49 619.11 353.91 617.86 354.28 616.89 355.2 616.58 355.91 616.11 356.46 615.55 356.49 615.03 356.97 614.03 358.81 613.68 359 611.99 359.78 611.25 360.19 610.67 358.54 611.06 357.64 611.07 356.5 610.93 354.28 611.59 353.18 611.91 352.79 611.9 351.66 612.67 349.76 614.41 347.78 614.85 346.85 616.34 345.35 616.95 343.9 618.29 341.54 618.62 340.11 618.44 339.41 617.31 338.36 617.25 337.27 617.96 336.23 619.21 335.08 618.97 333.87 615.79 335.03 611.1 336.64 609.84 337.72 609 337.89 608.17 337.63 607.55 336.96 608.6 335.46 608.44 334.79 608.86 334.17 608.73 333.32 609.67 332.03 609.42 331.16 609.14 330.99 608.64 330.13 608.42 329.06 607.59 328.35 607.81 327.51 607.97 328.11 608.88 327.95 609.39 327.56 610.34 327.63 610.84 328.1 613.47 328 613.7 328.31 614.17 328.3 619.72 328.48 619.85 328.16 620.1 326.8 620.16 325.39 619.84 324.6 617.51 321.71 617.5 319.31 617.97 318.96 618.08 317.89 619.07 317.63 619.77 314.79 619.9 314.45 621.55 314.35 622.66 314.68 623.5 310.63 623.73 310.42 624.39 309.15 625.06 309.43 625.53 310.29 627.39 303.61 627.89 304.01 628.76 303.95 629.49 304.67 630.77 304.11 631.67 304.45 632.3 304.07 631.73 303.47 631.27 302.12 631.38 300.54 631.72 299.78 632.04 298.41 631.73 298.24 631.91 296.96 632.12 293.13 633.1 291.64 632.83 290.83 634.58 292.17 636 292.61 643.91 289.98 652.25 293.25 659.93 291.86 660.96 292.56 660.63 293.06 660.87 293.44 662.07 293.69 662.3 294.15 662.8 294.28 662.57 294.85 662.01 294.44 661.21 294.96 661.21 295.17 661.8 295.46 661.16 295.81 661.51 296.35 661.17 296.36 660.8 297.04 661.17 297.49 660.91 297.93 661.24 298.14 661.46 299.42 661.7 299.72 662.1 299.66 662.31 299.99 662.12 300.34 662.38 300.51 663.15 300.82 664.19 301.94 664.08 302.44 664.66 302.2 664.93 302.49 665.49 302.33 665.34 303.69 666.44 304.19 666.6 304.91 666.29 305.05 665.85 305.54 666.98 306.29 673.23 302.64 676.1 300.44 677.06 300.3 677.78 300.88 677.92 300.65 678.91 300.57 679.43 301.46 680.27 301.35 680.8 301.63 680.98 301.21 681.55 301.23 681.9 302.06 681.66 303.03 Z" id="undefined" data-ddd="71" fill="rgba(1, 40, 66, 1)" stroke="rgba(0, 153, 255, 1)" stroke-width="2"/>
<path d="M 499.09 568.35 498.62 566.79 499.07 566.25 499.37 564.14 500.1 563.11 500.2 561.4 501.15 560.37 501.18 559.9 502.04 560.54 502.52 559.82 504.4 556.38 504.53 555.61 504.32 555.09 505.8 554.29 506.98 552.35 506.78 550.06 507.03 549.24 506.61 548.49 506.6 547.62 506.92 547.02 506.95 545.78 506.85 545.29 507.29 544.71 505.11 541.61 503.92 541.54 503.22 541.94 502.58 541.72 502.25 540.98 502.28 540.55 501.95 540.15 502.32 539.96 502.4 539.45 503.06 539.12 503.65 539.28 503.72 538.23 504.2 537.6 504.58 537.62 504.9 537.76 505.52 537.5 506.21 536.38 506.04 535.95 504.51 534.59 504.93 533.9 505.79 533.74 506.95 534.14 507.47 533.87 507.91 534.04 509.01 533.86 509.47 533.88 509.89 534.25 510.01 534.7 509.54 535.32 510.7 535.6 510.09 536.23 510.28 536.8 511.47 536.11 511.52 535.69 512.39 536.32 512.92 535.94 514.02 535.98 514.4 537.7 515.19 538.15 514.66 538.97 514.68 539.49 515.29 539.65 516.47 538.72 517.35 538.85 518.71 538.54 520.42 539.3 519.4 540.52 519.87 540.92 520.26 540.98 522.58 539.94 522.91 540.21 521.96 541.33 521.78 542.04 524.03 541.93 524.03 543.43 525.11 543.79 526.3 545.12 526.55 545.58 526.45 546.47 527.14 546.26 527.78 546.57 528.71 546.6 529.66 547.45 530.69 547.07 531.78 546.92 532.08 547.55 533.85 547.93 534.82 548.96 534.83 549.33 535.08 549.32 529.46 529.97 525.68 513.58 525.31 513.57 525.01 513.14 524.85 513.35 523.87 513.35 523.78 513.75 523.5 513.79 523.23 514.41 522.29 513.82 522.17 514.66 521.83 515.03 520.58 515.41 519.65 515.19 519.1 514.49 518.68 514.65 517.81 514.38 516.76 514.6 516.68 514.4 515.98 514.52 515.96 514.3 515.64 514.25 515.41 514.84 514.63 514.97 514.38 515.45 513.55 515.12 513.39 515.27 512.68 515.45 512.51 515.16 511.98 515.16 511.88 515.12 511.16 514.77 510.1 513.89 509.67 513.34 509.66 511.97 509.24 511.45 508.87 509.98 508.43 509.82 508.2 509.36 506.94 509.09 506.97 505.8 505.83 504.28 505.84 503.96 506.76 504.07 507.66 504.5 507.87 503.63 508.3 503.53 509.03 502.79 508.97 502.29 501.16 500.73 493.94 499.24 493.43 498.39 493.4 497.55 493.11 496.55 492.13 495.97 491.47 494.81 491.3 493.18 491.82 490.88 492.74 489.84 492.59 486.36 491.52 483.51 491.77 482.69 492.02 482.64 493.21 483.75 493.73 483.74 493.85 483.57 494.24 483.29 494.04 482.46 494.12 481.35 494.51 481.06 494.53 479.27 494.67 478.91 495.07 478.87 498.08 479.35 500.32 480.22 500.5 479.09 499.67 478.35 499.85 477.57 500.02 477.15 500.69 477.31 501.17 476.63 500.96 476.08 501.19 475.64 500.86 474.85 500.77 474.6 501.52 473.48 501.78 471.83 501.95 471.32 501.7 470.74 502 469.92 502.64 469.74 502.85 468.7 502.75 467.62 502.94 467.55 503.65 467.55 504.1 466.84 504.25 466.34 503.88 465.91 504.55 465.26 505.15 465.53 505.86 465.33 506.7 465.56 506.69 465.75 507.08 466.01 507.2 465.76 508.24 465.86 508.06 466.26 509.23 467.28 509.27 468.21 509.98 468.28 509.96 467.84 510.67 467.22 511.19 465.62 512.37 465.77 512.89 465.39 513.38 462.8 513.43 462.4 513.72 461.74 514.5 461.75 513.6 458.08 510.76 447.05 510.41 446.85 510.59 447.83 510.24 448.23 510.16 448.46 509.77 448.42 509.26 447.01 509.34 446.07 508.96 445.6 508.52 445.5 508.11 445.81 508.01 446.34 507.69 446.22 507.18 446.57 507.31 447.39 506.55 446.9 505.29 447.18 504.93 447.5 504.16 447.02 504.15 445.65 503.45 445.15 501.59 447.59 500.9 447.89 498.63 451.68 498.02 451.15 486.96 449.38 481.28 448.47 480.69 448.16 476.39 445.94 466.45 440.95 462.78 439.07 446.46 429.17 441.11 425.94 440.89 425.28 440.83 424.89 441.18 424.75 441.35 424.4 440.74 423.53 441.25 423.05 442.54 422.9 442.6 422.25 442.3 421.59 443.31 420.35 444.31 420.63 445.27 421.44 446.38 420.84 446.14 419.9 445.1 420.22 444.36 419.57 444.5 419.3 445.55 419.14 446.72 418.76 447.7 417.76 448.68 415.5 451.22 415.91 455.53 414.71 456.86 414.76 457.41 414.81 460.01 414.79 460.52 414.18 461.06 415.23 461.42 415.36 462.22 414.88 463.14 414.94 464.52 415.94 465.33 415.37 466.38 415.06 465.07 414.49 463.85 412.94 463.35 412.86 462.87 412.37 462.75 411.81 462.5 411.74 462.83 411.56 463.05 410.63 462.55 410.05 462.63 409.27 460.97 408.86 460.67 408.31 461.1 407.92 461.59 407.97 461.13 407.11 461.5 406.71 461.21 405.99 460.8 405.92 461.42 404.98 460.87 404.18 460.91 403.62 461.45 402.93 462.3 402.82 461.79 401.81 462.68 400.73 462.73 399.99 462.59 399.19 462.14 399.22 462.31 398.92 462.03 398.83 462.64 398.52 463.6 397.27 463.7 396.64 463.34 395.78 463.69 395.23 464.08 395.18 463.49 394.31 463.86 393.8 463.87 393.27 463.91 393.08 463.56 392.91 463.87 392.37 463.37 392.13 463.13 391.27 463.23 389.78 462.85 389.47 463.12 389.19 462.28 388.41 461.95 387.6 461.52 387.51 461.08 387.14 461.03 386.68 460.31 386.32 459.75 385.35 459.94 384.62 460.36 384.41 460.62 383.41 460.46 382.87 460.07 382.86 459.37 382.08 458.58 381.88 457.76 381.16 457.75 380.81 457.18 380.54 457.34 380.21 456.91 379.8 456.77 379.18 461.11 370.5 468.89 364.3 477.55 363.33 487.73 360.69 486.68 360.37 486.7 359.95 486.09 359.01 485.9 357.62 485.35 357.03 504.22 351.47 504.32 351.3 506.17 348.23 507.02 348.17 507.97 348.74 508.8 348.7 509.86 348.49 512.32 348.85 513.36 348.42 514.19 348.54 515.4 348.19 516.84 347.09 517.59 346.91 525.24 339.85 524.94 341.92 525.21 343.17 525.02 343.73 525.34 344.46 524.9 344.48 521.95 348.36 521.1 349.24 520.92 350.13 520.67 351.46 520.02 352.47 520.86 354.17 520.51 355.19 520.4 356.75 522.24 358.85 523.17 362.22 525.7 364.34 530.2 364.38 530.19 364.83 530.98 366.27 533.21 368.07 535.35 368.38 535.99 368.89 535.72 369.79 535.72 371.71 536.67 374.44 536.65 375.76 537.08 377.28 536.71 379.17 536.86 380.28 536.24 380.77 534.34 381.12 534.68 381.49 536.09 381.15 537.23 381.62 537.32 382.57 537.9 383.11 536.73 383.51 537.82 384.44 537.71 384.69 537.01 384.85 537.02 385.75 537.35 386.38 536.98 386.45 536.86 386.76 537.47 387.48 538.55 387.73 539.85 388.54 540.23 388.46 541.14 389.56 541.26 389.65 541.7 390.38 543.04 391.42 543.37 391.55 545.17 389.54 545.66 388.61 546.57 387.25 547.07 387.29 547.82 386.82 548.58 386.71 548.83 386.37 549.41 386.63 549.73 386.3 550.41 386.93 551.02 386.44 551.32 385.9 551.9 386.11 553 384.49 552.86 384.05 554.32 383.53 554.68 383.19 555.16 383.42 555.29 382.75 555.85 382.13 556.27 382.34 557.2 382.13 557.04 381.56 557.56 381 557.32 380.71 557.56 380.47 557.78 380.33 557.85 379.28 559.18 378.96 559.3 378.42 560.12 378.28 560.42 378.67 561.04 377.56 561.34 377.56 561.51 377.24 561.71 376.54 562.19 376.63 561.88 375.4 563.29 375.05 563.59 375.22 564.23 375.8 564.44 375.58 564.8 376.15 565.34 376.4 568.12 376.06 567.4 377.33 567.83 378.08 568.75 378.64 570.51 378.96 571.06 378.6 571.31 378.89 571.81 378.72 572.34 378.87 572.54 379.48 571.43 379.99 571.05 380.95 570.47 382.94 570.26 384.01 570.68 384.76 569.89 386.47 570.19 387 570.1 387.58 568.59 388.65 568.8 388.8 568.38 389.12 568.52 389.41 567.92 390.78 567.36 391.02 567.44 391.88 568.47 392.03 567.99 392.91 567.24 393.08 567.13 394.12 565.99 395.43 566.73 395.82 566.7 396.09 566.9 395.35 568.32 394.36 567.4 398.33 567.71 399.72 567.42 399.98 567.93 400.77 567.83 401.79 567.9 401.81 568.12 401.7 570.14 402.05 570.85 401.83 571.49 402.2 572.67 402.28 573.12 401.59 573.33 401.99 573.13 402.77 574.5 403.53 574.95 403.65 575.04 403.22 575.33 403.2 575.45 401.61 575.91 401.05 575.68 400.76 576.08 400.7 576.27 400.18 576.54 399.84 576.43 399.36 576.81 399.31 577.42 400.54 578.76 400.75 579.18 399.66 579.59 399.43 580.4 399.08 580.59 398.69 581 398.73 581.21 398.34 581 397.99 581.59 397.73 582.82 397.66 583.08 397.34 583.54 397.32 583.9 396.77 584.41 396.95 586.14 396.17 588.8 396.46 589.12 395.27 589.14 394.98 589.78 393.97 590.17 394.1 590.57 393.86 591.27 394.97 591.72 394.98 591.84 394.68 592.15 394.64 593.31 395.32 593.95 394.49 594.54 394.3 595.15 394.43 595.39 395.53 597.11 397.29 596.78 398.5 597.82 399.51 597.79 400.67 597.83 401.51 598.25 402.43 598.27 403.2 597.31 404.11 596.49 405.37 595.74 407.67 595.56 410.72 596.79 413.93 597.96 415.36 599.34 417.62 599.71 418.18 600.52 418.65 601.15 420.35 600.91 422.21 601.2 422.87 599.86 427.76 599.95 428.75 599.52 430.71 598.93 432.83 598.94 433.9 597.36 438.51 597.13 440.89 596.39 442.27 596.11 444.11 596.3 444.68 595.77 447.65 596.22 449.12 596.35 449.15 596.46 448.83 596.74 449.18 596.64 450.27 596.97 450.4 596.96 450.71 596.31 451.63 596.38 452.02 596.12 452.09 595.49 454.14 595.04 454.21 595.43 456.2 594.3 460.41 593.62 464.43 592.8 466.74 592.72 469.22 592.15 471.11 591.98 471.5 591 475.31 590.5 477.32 590.45 480.64 590.45 482.67 590.59 484.47 590.76 486.31 591.39 488.34 592.48 488.96 592.68 488.73 593.02 488.82 593.31 488.6 593.49 487.79 593.49 488.58 593.07 488.94 593.03 490.42 592.72 490.68 592.92 490.94 593.37 490.43 593.64 490.51 593.55 493.22 593.7 496.25 593.48 496.26 593.77 496.58 593.99 499.42 594.64 501.25 594.92 501.85 595.71 505.18 595.75 512.97 595.77 521.41 595.63 523.49 596.03 525.41 596.26 528.31 596.04 528.74 596.58 529.34 597.6 535.78 599.16 541.47 599.02 542.39 599.38 542.7 600.06 546.86 599.91 552.13 600.5 556.9 601.56 560.99 602.23 561.36 603.47 564.99 603.37 565.34 603.77 565.62 605.75 569.91 606.42 570.62 606.41 570.93 605.96 571.24 606.04 571.98 606.72 572.31 606.76 572.79 606.17 573.44 605.77 574.47 604.37 577.25 602.1 584.09 600.45 587.94 599.7 590.35 599.57 590.86 599.2 591.36 598.84 593.45 599.01 594.67 599.55 595.87 598.93 596.56 598.33 598.37 597.92 598.53 597.48 600.26 596.21 600.93 594.82 602.58 594.68 603.13 594.19 603.39 594.01 603.77 593.83 605.26 593.84 605.78 594.1 604.99 594.5 604.11 594.12 605.23 593.71 607.36 593.97 608.88 594.44 609.36 595.15 609.61 595.09 610.22 594.58 611.18 594.95 612.57 594.73 613.04 593.58 613.36 592.51 614.45 591 617.03 590.85 618.69 590.54 619.22 590.76 619.5 590.96 619.4 590.91 619.66 590.81 620.62 590.36 621.26 590.33 622.13 589.08 625.47 588.81 627.65 588.6 629.91 588.21 631.15 588.49 632.67 588.05 634.13 588.23 634.63 587.51 635.78 587.47 637.66 587.17 639.06 586.59 639.27 586.51 639.81 585.71 640.78 585.55 642.02 585.07 642.34 584.8 642.21 584.54 642.73 584.3 646.04 584.46 651.23 585.51 652.81 586.84 653.56 585.85 654.19 583.66 657.2 583.41 660.16 582.03 662.84 581.98 665.83 582.62 666.61 581.81 666.84 581.51 668.1 581.44 670.21 581.14 670.92 580.1 671.72 579.54 672.72 578.94 674.87 579 680.36 578.64 681.64 578.27 684 578.61 687.97 578.97 689.47 579.64 693.32 580.64 696.58 580.51 701.96 580.86 705.53 580.66 705.92 580.36 706.93 581.24 709.96 584.85 715.13 584.97 715.41 584.67 715.87 581.13 718.99 581.49 720.2 579.73 721.4 579.35 722.27 575.26 726.52 574.79 727.51 574.35 728.47 574.96 729.14 574.4 729.73 570.14 731.56 569.23 731.7 568.81 731.48 567.76 731.85 566.77 732.55 565.89 732.75 564.53 733.27 560.98 735.43 558.82 737.51 557.12 739.58 554.88 742.92 553.26 746.06 552.65 747.21 552.25 746.4 551.84 746.54 550.89 746.8 550.79 746.06 550.09 746.24 550.94 746.98 551.77 746.78 551.42 747.14 551.59 748.25 552.31 747.78 552.4 747.43 552.54 747.56 549.85 751.14 545.91 758.08 545.78 759.22 544.6 762.21 544.66 762.81 544.05 764.54 544.2 765.03 543.34 767 543.59 765.74 542.94 765.08 541.79 764.77 534.45 760.11 530.48 757.58 528.06 756.04 525.31 754.28 524.38 753.69 515.95 748.29 512.72 746.26 509.96 744.5 500.19 738.23 500.19 738.23 500.16 738.21 499.81 736.48 498.61 736.03 496.86 734.58 496.94 733.65 500.92 731.6 503.9 728.17 503.8 727.96 502.96 726.67 502.22 726.33 501.58 726.4 501.77 725.37 501.55 724.54 500.49 723.79 500.78 722.33 500.54 721.34 500.84 720.51 500.03 718.98 499.04 719.11 498.08 718.68 497.54 717.85 496.41 718.44 495.63 718.1 495.17 716.38 494.45 716.29 494.25 716.03 494.17 714.34 493.5 713.65 492.32 713.31 492.08 712.62 492.39 711.93 491.44 711.03 490.68 709.81 490.4 709.55 490.16 709.82 490.31 710.92 489.83 711.98 489.3 711.38 488.48 709.49 487.86 709.4 486.54 710.52 486.02 709.42 485.16 709.31 484.87 708.45 485.05 707.46 485.35 707.67 485.53 707.4 485.16 706.66 485.46 706.04 483.79 705.99 482.88 706.88 481.58 706.06 480.42 703.36 479.57 702.81 479.34 702.26 479.74 701.18 479.81 699.82 478.84 699.68 478.65 699.09 478.06 698.82 476.85 697.47 476.95 696.57 474.26 695.69 473.32 694.54 472.57 694.07 472.44 693.98 470.99 694.52 470.2 694.36 470 694.31 468.85 693.38 470.78 692.11 470.55 691.55 470.86 691.11 470.76 690.15 470.25 689.71 471.25 688.66 470.45 688.28 469.98 687.22 470.23 686.94 471.08 686.95 471.42 686.13 472.07 685.98 472.85 684.7 474.76 683.84 473.65 682.97 473.54 681.94 472.92 681.44 473.03 680.56 473.45 680.43 473.93 679.7 473.62 678.28 474.4 677.24 474.28 676.45 472.66 675.78 472.33 673.41 472.31 673.27 473.58 671.56 474.05 668.7 473.69 668.14 472.98 667.96 472.89 666.84 474.38 663.24 474.15 662.75 474.94 660.47 475.75 660.21 477.21 658.86 478.12 656.18 479.06 654.22 479.17 652.69 480.03 652.09 481.58 652.22 482.07 652.46 482.47 653.3 483.41 653.37 483.58 652.93 483.89 653.01 484.92 653.84 485.7 653.8 485.82 653.79 486.14 653.26 486.29 653.01 488.17 652.8 488.53 651.94 488.91 651.89 490.33 652.97 490.29 653.85 490.98 653.78 491.98 654.63 492.31 654.22 492.8 654.3 493.88 653.3 494.61 654.26 495.53 653.99 496 652.92 496.29 651.57 496.83 651.17 496.75 650.8 497.83 650.78 497.86 649.92 498.24 649.67 497.89 649.13 497.73 648.02 497.34 647.71 497.46 645.19 495.44 646.41 494.51 645.83 492.26 646.2 491.33 645.18 490.55 645.1 491.3 644.51 492.53 641.91 493.3 641.12 493.27 639.8 493.91 638.93 493.55 638.04 493.24 637.97 493.07 636.63 494.23 634.59 494.72 632.21 495.36 630.86 495.06 630.3 495.99 628.46 497.13 628.49 497.63 628.11 498.23 628.43 498.32 627.92 499.04 627.69 499.21 627.28 499.24 627.21 499.63 627.48 500.96 628.39 501.81 628.56 502.03 628.17 502.67 628.23 504.01 629.14 504.01 628.93 504.02 628.73 505.04 628.96 504.95 628.3 505.41 627.59 504.92 627.26 504.9 626.14 504.5 625.73 503.87 625.64 504.31 625.46 504.15 624.57 504.41 624.34 504.87 624.53 505.14 623.76 506.56 622.34 508.09 620.08 508.48 620 508.67 619 509.45 617.77 509.81 616.54 510.31 617.58 509.94 618.63 510.62 618.95 510.96 619.87 512.11 619.62 512.71 618.01 512.62 617.38 513.45 617.36 514.31 615.81 514.25 615.33 514.98 614.26 515.55 611.56 516.15 610.83 516.62 610.69 516.64 610.21 517.86 609.47 517.78 608.99 518.1 608.4 518.24 608.13 518.29 608.03 519.2 607.95 519.12 608.4 519.68 608.57 519.88 609.24 520.6 608.79 520.72 608.41 521.24 606.91 521.92 606.46 522.26 606.6 522.77 605.8 524.02 605.82 523.75 604.25 523.09 603.82 522.47 602.85 524.37 600.56 524.33 600.08 525.15 599.94 525.45 599.39 526.62 598.86 526.65 596.45 526.31 595.45 525.81 595.41 525.56 594.72 526.07 594.47 526.62 594.98 527.48 594.35 528.38 593.4 528.69 592.55 528.07 591.78 527.93 591.13 527.08 590.82 527.13 589.87 526.57 588.82 525.3 588.26 525.36 587.54 523.59 585.91 522.83 585.81 522.53 585.53 523.89 584.23 524.14 583.67 523.47 583.31 521.61 583.08 521.12 583 520.4 583.38 520.33 584.09 519.06 584.11 519.08 583.49 518.14 583.28 517.9 583.71 517.17 583.82 517.44 583.26 516.86 583.28 516.45 582.42 515.85 582.49 515.75 582.93 515.32 582.55 515.39 582.15 514.96 582 515.06 581.59 514.16 581.63 513.87 581.41 514.14 581.28 513.94 580.74 512.74 580.86 512.35 580.57 512.47 580.2 512.9 580.02 512.35 579.8 512.35 578.97 512 578.83 511.36 579.06 511.51 578.55 512.14 578.52 512.34 577.82 511.92 577.91 512.36 576.64 511.81 576.81 511.67 577.43 511.2 577.75 510.74 576.93 511.14 576.25 510.88 575.64 509.96 575.89 509.97 576.45 509.29 576.81 508.69 576.75 508.38 576.14 507.5 576.45 506.79 576.36 506.54 575.78 506.12 575.82 505.86 576.29 505.3 575.83 505.04 576.53 504.66 576.67 504.49 576.26 504.19 576.46 503.78 576.04 504.57 575.41 504.55 573.4 503.94 573.57 502.48 572.57 501.9 572.94 501.97 572.5 501.37 572.32 501.45 571.66 500.9 571.37 500.89 570.86 500.43 570.86 500.48 570.14 499.95 570.08 500.15 569.77 499.71 569.48 499.47 568.37 499.09 568.35 Z" id="undefined" data-ddd="73" fill="rgba(1, 40, 66, 1)" stroke="rgba(0, 153, 255, 1)" stroke-width="2"/>
<path d="M 349.05 290.72 348.53 290.14 355.39 290.81 344.41 277.02 342.16 275.2 342.99 273.27 342.51 271.69 343.17 270.99 343.05 270.27 343.33 269.49 343.12 268.9 342.76 268.02 342.31 267.64 347.74 271.9 347.92 271.77 347.27 270.84 346.73 270.52 347.51 269.88 347.28 268.35 346.6 267.83 346.5 266.99 345.53 266.13 345.72 265.53 346.33 265 346.59 263.94 339.58 256.22 333.26 249.28 333.22 249.24 333.04 249.89 333.2 250.99 332.85 251.8 332.96 252.61 332.36 252.99 331.35 252.41 330.59 252.38 328.52 253.27 326.63 252.65 325.88 251.92 325.66 251.24 324.52 250.18 324.31 250.65 323.3 254.07 322 252.87 320.98 252.63 320.76 251.99 319.7 251.73 319.45 251.4 317.21 250.92 316 249.31 314.96 248.83 312.68 249.58 311.19 249.56 311.06 249.3 310.55 249.34 309.58 248.85 308.24 249.73 307.84 249.76 305.93 249.92 305.53 249.65 304.33 250.44 303.03 250.56 291.72 244.79 288.46 243.88 261.01 236.13 260.25 238.52 259.54 238.92 257.26 238.77 256.39 239 255.1 240.21 254.24 241.88 253.26 246.01 253.52 247.37 254.98 249.67 255.64 250.07 256.24 251.1 255.94 254.3 254.26 254.5 254.15 254.91 252.9 254.76 252.67 255.01 251.38 254.63 250.42 255.76 249.94 255.7 249.59 256.1 248.86 255.59 248.49 256.04 246.99 256.6 246.52 256.29 244.91 256.35 244.55 256.12 243.62 256.4 243.3 255.95 242.79 255.88 242.79 256.67 242.35 256.58 242.09 256.16 240.16 257.05 239.73 256.87 238.09 257.39 236.62 256.87 236.21 256.21 235.66 256.27 235.41 254.58 234.16 253.54 234.21 252.83 233.62 252.68 233.59 251.61 233.19 251.01 232.54 251.03 232.1 250.68 228.8 252.17 228.17 250.44 225.71 246.34 224.75 243.23 223.51 240.38 221.26 229.85 220.45 228.17 219.67 224.99 219.83 224.25 219.38 223.49 218.86 221.46 218.4 220.89 218.36 220.83 218.18 219.52 216.91 217.28 215.42 213.25 215.35 212.32 214.72 211.48 214.67 210.37 212.86 205.93 212.4 204.4 212.4 203.19 211.81 201.63 211.42 201.18 211.35 200.36 210.95 199.78 207.98 197 206.44 194.54 204.98 192.89 203.38 189.74 204.08 188.84 204.67 188.6 205.75 188.69 206.29 187.82 208.22 188.23 209.19 187.55 209.72 186.39 211.15 185.78 211.33 183.96 213.02 182.34 213.93 182.13 215.21 182.51 215.7 181.99 216.29 182.14 216.56 181.73 217.52 181.78 218.64 182.55 219.05 183.55 220.1 184.27 220.55 185.41 221.97 186.33 223.43 186.06 223.6 185.4 223.42 184.77 224.6 184.71 225.39 184.02 225.49 184.38 225.03 185.25 225.75 185.76 226.35 186.23 226.66 185.83 227.89 185.71 228.24 185.12 228.97 185.13 253.64 171.28 253.59 170.95 253.55 168.6 254 167.72 253.6 166.03 253.97 165.2 254.25 162.58 254.15 161.62 253.53 160.82 253.86 160.1 253.83 158.77 253.56 158.15 253.82 157.46 253.67 156.53 254.03 155.65 254.14 155.17 253.77 154.5 253.76 153.62 253.97 150.43 253.27 148.89 253.76 148.06 253.84 147.09 253.36 146.52 253.47 144.78 253 141.98 254.04 139.93 254.27 137.82 253.87 136.26 253.9 134.85 253.37 134.37 253.3 133.91 247.45 134.46 247.57 134.89 246.59 135.34 246.67 136.08 245.21 136.88 244.69 136.95 243.78 138.72 241.89 139.64 240.64 138.73 239.71 138.5 239.48 138.16 239.15 138.07 237.72 138 236.7 139.07 236.67 140.04 236.24 140.73 235.8 140.96 235.2 140.76 234.11 140.93 232.63 142.19 214.28 142.33 215.3 141.27 217.17 140.17 217.91 139.26 218.24 137.15 217.91 136.2 217.93 135.88 217.93 135.17 218.21 134.66 221.06 131.78 222.53 129.57 223.5 125.72 223.49 125.12 222.99 123.19 223.35 122.17 223.43 122.05 223.55 121.73 224.08 121.31 226.37 121.12 229.25 121.53 229.46 118.97 231.08 117.89 231.65 115.83 231.4 114.83 231.35 114.72 229.9 114.14 228.47 112.84 229.52 110.73 229.45 109.98 229.26 109.67 228.22 109.4 228 108.71 228.27 108.18 228.98 107.78 229.12 107 230.46 106.63 231.32 105.27 231.41 104.24 232.33 103.41 232.35 102.93 231.45 101.73 230.04 101.11 229.21 100.29 228.05 100.32 227.31 100.07 227.03 99.36 223.9 98.15 223.46 97.59 222.07 96.94 221.08 94.24 221.38 93.1 221.16 91.97 218.8 88.14 217.62 87.19 217.76 86.34 218.22 86.04 218.24 85.67 217.57 85.26 217.65 83.18 216.79 81.32 217.02 80.22 219.46 76.02 220.94 74.88 221.97 73.17 222.29 72.78 223.26 71.95 224.69 71.33 229.81 70.06 234.59 66.61 235.21 65.98 236.88 63.97 238.63 62.13 240.89 61.56 241.12 61.51 242.32 60.87 244.51 58.72 245.45 58.16 247.54 57.85 249.14 58.22 249.95 58.72 252.18 61.5 252.74 62.63 253.96 64.68 255.14 65.89 255.74 66.24 257.11 66.22 257.59 66.54 258.75 67.84 259.77 68.19 260.27 68.59 261.09 70.23 261.58 70.58 262.04 70.44 262.53 69.6 264.42 69.59 265.47 68.9 266.28 68.72 267.22 68.83 267.83 70.07 268.38 70.26 269.77 69.54 270.96 66.88 271.85 66.82 272.95 67.67 273.22 67.11 273.67 67.03 274 66.47 274.62 67.15 274.96 66.99 275.22 67.61 275.87 67.54 276.69 67.99 276.87 68.46 277.52 68.64 278.14 68.2 278.71 68.43 278.89 70.06 279.08 69.86 282.35 69.27 282.85 69.4 284.06 68.87 284.35 68.8 285.66 69.41 286.59 70.94 286.6 70.96 286.75 71.68 286.24 73.12 286.3 74.11 287.1 76.29 287.14 77.28 287.54 77.91 288.93 78.6 290.64 78.46 291.56 79.44 293.23 81.45 293.64 81.47 295.21 80.34 296.05 80.4 296.61 81.03 296.63 82.81 297.27 84.18 297.35 85.77 298.97 86.03 301.67 85.58 302.01 85.01 302.25 83.44 303.46 82.87 304.23 81.86 305.44 80.86 305.13 78.91 305.8 78.83 307.45 80.02 308.8 80.28 310.3 79.7 311.43 79.89 312.04 79.47 312.87 79.7 314.34 77.78 314.92 76.9 314.96 76.84 315.62 76.22 316.97 76.61 318.53 76.15 320.63 76.71 322.91 76.07 323.46 75.2 323.06 74.1 323.22 73.51 324.18 73.25 326.14 73.51 327.01 73.05 327.97 71.77 328.38 69.74 330.26 68.44 332.97 67.23 333.55 66.5 333.5 65.92 333.68 64.76 335.96 63.47 336.55 62.33 338.77 61.6 340.36 61.62 340.98 61.23 342.38 59.99 343.75 59.56 345.29 60.3 346.24 60.22 347.39 59.71 350.32 59.94 351.94 59.61 353.63 59.37 356.2 57.43 357.32 57.38 358.67 57.44 359.69 56.94 361.41 58.21 363.56 56.86 364.65 57.9 365.37 58.03 366.28 58.31 367.27 59.13 367.81 59.18 368.46 58.82 369.02 57.66 370.38 57.23 371.51 55.98 372.35 56 373.46 56.5 374.05 56.36 375.46 52.2 377 50.34 377.01 49.01 378.71 47.42 380.22 46.56 382.07 44.84 382.4 42.9 382.24 41.08 382.57 39.08 382.97 38.51 386.34 38.41 387.17 37.73 387.2 36.68 390.36 36.28 390.74 36.02 390.97 35.18 391.85 34.9 392.17 34.13 392.86 34.25 393.43 33.95 394.96 33.95 395.33 35.14 396.85 34.46 396.95 34.08 396.93 32.61 397.98 31.81 398.74 29.8 399.85 29.06 399.6 27.8 400.23 26.84 400.85 26.62 401.38 25.27 402.6 25.21 403.34 24.09 405.74 21.62 406.34 22.05 407.34 19.85 408.49 16.36 409.7 14.61 410.6 14.52 411.49 14.64 413.36 16.2 415.26 16.08 416.43 16.82 417.48 16.86 418.38 16.47 419.11 15.66 420.83 15.58 420.74 14.89 421.74 14.41 423.46 14.79 424.04 14.55 424.94 14.88 425.22 14.66 425.69 14.92 426 14.61 426.74 14.82 430.58 14.34 430.59 14.36 430.72 14.73 429.84 15.5 429.96 15.94 429.56 16.3 429.41 17.28 429.73 18.16 430.58 18.67 430.44 19.05 430.78 19.51 431.19 19.55 431.51 20.44 433.05 20.63 433.33 20.97 433.88 20.54 434.25 20.37 435.18 20.83 436.15 20.6 436.63 20.75 437.51 22.45 437.01 24.58 437.8 25.25 439.43 24.1 440.26 24.15 441.09 23.68 442.51 24.25 442.65 25.09 442.67 25.1 442.76 25.15 443.64 25.36 445.6 24.61 446.09 25.71 447.06 26.61 447.54 27.39 447.65 28.8 448.55 30.03 448.73 30.87 449.89 31.48 450.28 33.4 451.04 33.75 451.09 36.29 451.13 36.39 451.46 37.16 452.34 38.13 452.56 39.29 452.55 39.89 453.1 40.43 453.23 42.3 453.57 42.85 453.43 43.69 454.13 44.04 454.75 45.13 455.89 45.18 456.15 45.66 456.84 45.31 457.94 45.8 458.44 45.65 458.42 46.81 458.94 46.65 460.33 47.13 462.1 48.45 462.86 48.55 464.04 48.19 464.61 49.26 465.42 49.87 465.05 50.91 465.17 52.18 464.66 52.54 464.28 53.43 464.38 54.01 463.3 55.67 463.58 55.72 463.93 56.46 463.71 57.51 464.43 57.68 464.15 58.5 463.87 59.17 462.28 59.72 462.3 60.44 461.31 61.32 459.8 60.6 459.44 61.35 458.85 61.49 458.54 61.93 459.96 63.74 459.64 64.51 459.9 65.17 459.25 66.41 459.55 67.36 459.54 68.72 459.17 69.12 457.8 69.7 458.22 70.94 457.62 72.23 456.88 72.92 459.34 72.05 461.14 72.25 461.82 72.62 464.33 73.91 466.25 74.36 468.87 75.14 471.06 73.92 472.12 73.95 473.4 73.66 474.71 72.49 475.5 70.27 476.21 69.75 477.65 69.23 478.7 69.34 478.79 69.38 479.56 69.79 480.5 70.29 481 70.27 481.95 69.12 483.49 65.71 484.66 64.97 485.38 65.09 486.97 66.49 488.52 67.01 489.56 66.89 491.36 65.07 491.28 62.98 492.61 59.87 493.49 58.63 494.83 52.91 495.2 51.64 494.56 49.32 495.13 46.61 496.32 43.76 498.17 41.96 498.46 41.9 499.26 41.76 499.44 41.72 500.85 42.21 501.2 42.47 502.78 43.66 503.96 44.59 504.16 44.75 504.63 45.76 505.72 45.81 507.47 46.01 509.56 44.73 510.34 44.25 511.77 43.33 512.4 42.38 517.13 42.12 518.31 42.09 519.14 41.81 520.79 41.25 522.23 39.42 524.03 37.35 525.07 35.77 526.07 34.89 526.08 34.86 527.35 32.1 527.3 31.81 526.93 29.8 525.09 26.43 525.28 25.13 525.74 24.32 526.35 23.8 531.57 22.9 533.7 23.4 533.78 23.35 535.6 22.31 537.2 21.38 540.89 21.84 542.1 21.25 542.91 20.85 543.13 20.35 542.68 18.77 542.97 17.59 542.88 16.91 541.47 12.52 541.62 11.1 543.99 10.72 545.02 10.88 545.15 10.86 546.45 10.61 548.15 10.61 551.11 9.13 551.51 8.61 552.05 8.49 552.25 7.97 554.5 7.22 555.32 6.49 558.41 5.68 559.44 4.95 560.28 3.37 561.58 3.38 562.17 3.02 563.1 1.73 563.7 1.45 565.93 1 566.69 1.25 567.12 1.39 567.23 1.53 567.68 2.11 566.74 2.78 564.96 6.09 557.96 19.98 552.65 30.64 557.2 36.4 560.88 40.97 568.06 49.74 567.63 50.14 567.16 51.36 567.47 53.78 566.42 54.98 567.16 56.51 567 57.17 567.38 58.49 567.3 59.26 568.32 60.77 568.26 61.05 567.93 62.06 568.28 63.17 569.79 63.74 569.83 64.07 570.5 64.7 571.65 65.31 572.98 66.54 573.51 67.97 573.45 69.5 573.03 69.88 573.08 70.67 573.65 71.44 572.86 72.24 572.6 72.92 572.19 75.94 570.97 84.5 571.24 84.62 571.64 85.05 571.55 85.36 571.8 85.34 573.11 86.83 573.62 87 574.48 86.66 574.94 87.46 575.2 87.17 576.62 86.94 578.2 86.96 579.01 87.92 580.04 87.35 581.44 87.36 581.87 87.11 582.6 87.87 583.5 87.88 584.24 88.48 584.91 87.93 585.17 88.16 584.66 89.77 584.28 90.19 584.57 90.51 583.74 91.66 582.83 92.04 580.85 91.79 580.02 92.28 580.63 93.29 579.96 94.11 580.39 94.62 579.84 94.72 580.17 95.39 579.96 95.62 580.1 96.01 579.47 96.6 579.94 96.68 579.91 98.25 580.19 98.69 579.63 99.24 579.36 100.62 579.72 101.98 579.59 102.32 579.88 102.57 579.36 104.13 579.46 104.82 579.59 111.97 579.62 112.61 579.74 113.37 579.31 114.18 579.41 114.56 578.7 115.35 578.77 115.77 578.42 115.92 578.58 116.22 578.25 116.54 578.24 117.37 577.73 117.45 577.55 117.96 577.09 118.15 576.17 119.71 575.92 120.71 575.72 121.53 574.97 122.24 574.93 122.84 575.59 126.99 575.21 127.78 574.5 132.62 574.94 133.42 575.12 134.92 561.68 125.81 557.17 124.94 548.89 123.41 546.61 122.95 540.7 119.91 536.72 115.52 533.49 110.76 533 111.22 532.64 110.78 532.84 111.79 533.9 111.69 534.13 111.96 534.03 113.51 534.9 116.77 534.58 118.82 535.07 120.41 534.74 122.55 535.06 123.29 535.09 125.73 535.55 128.37 535.99 129.16 536.06 130.47 536.25 131.03 536.02 132.75 536.48 133.76 536.35 135.17 536.88 136.47 537.14 138.34 537.41 138.64 537.26 139.21 538.1 141.59 538 142.27 537.99 142.29 537.87 143.88 538.13 144.45 538.13 145.68 538.11 146.55 538.38 147.38 538.1 147.85 537.86 148.06 537.71 149.35 536.8 149.83 536.86 150.37 536.42 151.63 536.5 152.4 535.92 152.82 535.88 154.28 536.5 154.86 535.83 155.61 536.16 156.28 535.93 156.92 535.61 157.51 535.35 158.47 535.95 159.6 536.13 160.88 537.51 165.49 538.44 166.72 538.79 166.97 539.81 167.01 541.18 168.17 540.89 168.71 540.81 169.5 541.05 170.19 540.8 171.36 540.13 171.67 540.55 172.68 541.45 173.04 541.48 173.64 541.02 174.33 542.18 175.2 542.1 176.18 542.34 176.84 542.67 178.37 543.61 178.5 543.85 179.43 543.41 180.1 543.57 180.9 544.57 181.32 545.81 181.4 545.22 182.3 545.95 183.08 545.97 183.71 546.53 183.74 546.71 184.02 546.79 184.87 546.24 185.48 546.46 186.05 546.57 186.94 542.61 192.2 540.79 191.62 540.03 192.09 539.29 191.99 539.13 191.75 539.58 191.03 538.4 189.89 536.97 189.84 536.06 190.59 535.87 190.26 535.12 190.32 534.29 189.76 533.04 188.81 531.18 188.88 531.06 187.95 530.2 188.2 529.68 187.72 529.92 187.44 529.74 187.1 528.73 187.13 528.28 187.16 528 186.14 526.88 186.32 526.32 185.76 525.87 185.9 525.7 186.47 525.12 186.94 523.37 187.02 522.97 186.02 522.29 186.38 521.71 186.34 521.24 185.15 520.43 185.55 519.92 185.48 519.45 184.8 518.76 184.95 517.57 184.44 517.75 183.95 517.56 183.82 516.53 184.56 516.15 184.45 515.74 183.93 516.14 183.23 515.44 182.85 513.76 182.83 513.33 182.46 512.48 182.57 514.72 191.75 518.2 206.13 518.14 206.56 517.57 211.15 528.01 218.04 535.81 227.04 536.02 227.36 535.7 227.98 536.1 228.43 535.41 229.19 535.34 229.84 535.09 230.03 534.43 229.72 534.3 230.04 534.18 230.13 533.8 230.81 531.99 232.02 531.61 232.85 531.15 232.59 531.25 232.01 531.02 231.8 530.17 232.2 529.84 231.82 529.52 231.84 529.39 231.12 529 231.26 528.33 231.92 527.39 231.7 526.48 231.12 525.52 231.89 525 231.81 524.54 232.18 523.74 232.17 523.35 232.51 523.2 245.53 523.7 247.23 523.71 247.25 524.65 248.93 524.41 250.79 524.38 250.82 518.03 256.11 515.32 258.21 513.62 259.5 513.59 259.75 514.23 259.7 514.56 260.08 514.42 260.84 513.79 261.58 514.14 261.99 515.08 263.53 515.67 264.52 516.74 265.41 517.19 266.68 517.7 266.64 518.83 267.6 520.88 268.32 520.68 269.63 518.34 275.17 515.02 282.88 514.42 283.8 506.61 290.92 506.41 290.79 506.19 291.23 505.33 291.11 505.28 290.11 504.9 289.99 504.55 289.83 504 288.74 503.36 289.01 503.66 289.45 503.04 289.81 502.86 289.59 502.37 289.78 501.55 288.34 500.98 288.33 501.11 288.72 499.97 289.05 496.84 288.65 496.68 288.8 496.4 288.78 496.28 289.3 495.18 288.53 493.84 288.84 493.19 288.44 493.47 288.25 493.33 287.69 492.71 287.15 492.27 287.43 492.15 287.09 490.59 286.42 490.54 286.74 489.52 286.74 488.63 286.13 488.34 285.64 486.72 285.04 486.02 285.4 486 285.41 485.78 285.51 484.96 284.74 484.92 283.6 484.37 283.97 483.04 283.88 482.97 283.03 482.2 282.33 482.28 281.89 482.73 281.83 482.74 281.64 481.88 281.45 482 280.84 481.65 280.51 481.87 280.17 481.59 279.44 481.48 279.77 480.84 279.94 480.22 279.5 479.75 280.14 479.48 279.85 478.84 279.83 478.32 280.38 478.09 280.05 477.87 280.22 477.78 279.81 476.99 279.55 477.11 279.1 476.58 278.66 476.24 279.05 475.82 278.76 473.14 279.06 463.81 279.77 449.78 280.88 448.55 270.09 441.53 269.18 431.8 267.96 423.61 263.72 417.84 260.7 414.66 259.22 414.48 259.42 413.96 259.75 413.05 260.05 411.31 261.71 410.58 262.12 410.25 263.68 406.99 265.31 405.13 266.41 405.16 267.5 404.74 267.89 403.57 268.57 404.14 269.1 404.19 269.73 405.27 271.61 406.34 274.58 407.39 274.83 408.38 277.4 410.25 277.71 410.69 278.13 410.4 280.74 410.72 281.55 410.76 282.83 411.54 283.45 411.47 284.48 411.7 284.75 404.74 280.14 395.4 275.32 388.24 271.61 385.31 270.2 364.45 259.93 358.39 257.02 357.56 257.46 357.99 257.96 358.08 258.61 359.23 260.05 359.35 263.06 359.94 263.66 360.79 263.71 361.66 264.28 361.62 265.5 359.8 267.07 360.93 269.16 360.96 270.43 362.97 272.86 363.18 274.38 363.45 274.78 363.5 274.87 364.22 275.92 362.73 274.91 362.05 276.16 361.92 277.13 362.76 277.41 363.2 277.14 363.1 277.55 363.55 277.95 363.66 279.08 363.3 279.66 363.08 281.08 362.7 281.29 363.07 281.49 363.39 281.83 363.23 283.6 363.43 284.08 363.98 285.61 363.58 287.38 363.66 288.62 363.99 289.16 363.64 289.18 362.35 289.09 362.56 290.26 363.24 291.34 363.62 292.15 363.3 292.44 359.46 289.76 354.14 296.66 353.08 296.38 352.72 295.56 352.09 295 351.65 293.93 351.86 293.39 351.75 292.57 351.05 292.82 350.71 292.61 349.05 290.72 Z" id="2" data-ddd="74" fill="rgba(1, 40, 66, 1)" stroke="rgba(0, 153, 255, 1)" stroke-width="2"/>
<path d="M 611.25 360.19 611.46 360.31 610.74 361.03 609.51 361.23 607.57 362.23 606.59 363.01 605.85 364.05 604.49 364.62 602.92 365.65 602.61 366.12 601.66 366.14 600.84 366.58 599.71 368.14 598.31 371.71 598.19 372.29 598.06 376.46 598.61 378.25 599.53 379.71 600.01 380.45 601.99 378.65 602.64 379.28 602.89 379.07 603.06 380.47 602.82 380.94 603.05 380.94 603.27 381.82 602.98 382.86 603.84 383.28 604.29 384.58 604.01 384.95 604.2 385.27 603.95 385.81 603.07 386.83 602.11 386.59 601.94 387.39 602.97 387.36 603.03 387.62 602.63 387.8 602.76 388.16 602.46 388.66 601.25 389.42 600.88 390.57 600.62 393.28 600.78 394.08 601.26 394.51 601.26 394.54 602.08 394.49 602.21 395.02 602.21 395.13 602.21 395.54 603.19 396.28 602.9 396.99 602.91 398.09 603.62 398.41 604.2 398.03 604.02 398.31 604.24 398.3 604.27 399.8 603.95 401.03 602.3 402.15 602 402.02 601.55 400.85 600.49 400.73 599.37 401.76 598.16 401.91 598.25 402.43 597.83 401.51 597.79 400.67 597.82 399.51 596.78 398.5 597.11 397.29 595.39 395.53 595.15 394.43 594.54 394.3 593.95 394.49 593.31 395.32 592.15 394.64 591.84 394.68 591.72 394.98 591.27 394.97 590.57 393.86 590.17 394.1 589.78 393.97 589.14 394.98 589.12 395.27 588.8 396.46 586.14 396.17 584.41 396.95 583.9 396.77 583.54 397.32 583.08 397.34 582.82 397.66 581.59 397.73 581 397.99 581.21 398.34 581 398.73 580.59 398.69 580.4 399.08 579.59 399.43 579.18 399.66 578.76 400.75 577.42 400.54 576.81 399.31 576.43 399.36 576.54 399.84 576.27 400.18 576.08 400.7 575.68 400.76 575.91 401.05 575.45 401.61 575.33 403.2 575.04 403.22 574.95 403.65 574.5 403.53 573.13 402.77 573.33 401.99 573.12 401.59 572.67 402.28 571.49 402.2 570.85 401.83 570.14 402.05 568.12 401.7 567.9 401.81 567.83 401.79 567.93 400.77 567.42 399.98 567.71 399.72 567.4 398.33 568.32 394.36 566.9 395.35 566.7 396.09 566.73 395.82 565.99 395.43 567.13 394.12 567.24 393.08 567.99 392.91 568.47 392.03 567.44 391.88 567.36 391.02 567.92 390.78 568.52 389.41 568.38 389.12 568.8 388.8 568.59 388.65 570.1 387.58 570.19 387 569.89 386.47 570.68 384.76 570.26 384.01 570.47 382.94 571.05 380.95 571.43 379.99 572.54 379.48 572.34 378.87 571.81 378.72 571.31 378.89 571.06 378.6 570.51 378.96 568.75 378.64 567.83 378.08 567.4 377.33 568.12 376.06 565.34 376.4 564.8 376.15 564.44 375.58 564.23 375.8 563.59 375.22 563.29 375.05 561.88 375.4 562.19 376.63 561.71 376.54 561.51 377.24 561.34 377.56 561.04 377.56 560.42 378.67 560.12 378.28 559.3 378.42 559.18 378.96 557.85 379.28 557.78 380.33 557.56 380.47 557.32 380.71 557.56 381 557.04 381.56 557.2 382.13 556.27 382.34 555.85 382.13 555.29 382.75 555.16 383.42 554.68 383.19 554.32 383.53 552.86 384.05 553 384.49 551.9 386.11 551.32 385.9 551.02 386.44 550.41 386.93 549.73 386.3 549.41 386.63 548.83 386.37 548.58 386.71 547.82 386.82 547.07 387.29 546.57 387.25 545.66 388.61 545.17 389.54 543.37 391.55 543.04 391.42 541.7 390.38 541.26 389.65 541.14 389.56 540.23 388.46 539.85 388.54 538.55 387.73 537.47 387.48 536.86 386.76 536.98 386.45 537.35 386.38 537.02 385.75 537.01 384.85 537.71 384.69 537.82 384.44 536.73 383.51 537.9 383.11 537.32 382.57 537.23 381.62 536.09 381.15 534.68 381.49 534.34 381.12 536.24 380.77 536.86 380.28 536.71 379.17 537.08 377.28 536.65 375.76 536.67 374.44 535.72 371.71 535.72 369.79 535.99 368.89 535.35 368.38 533.21 368.07 530.98 366.27 530.19 364.83 530.2 364.38 525.7 364.34 523.17 362.22 522.24 358.85 520.4 356.75 520.51 355.19 520.86 354.17 520.02 352.47 520.67 351.46 520.92 350.13 521.1 349.24 521.95 348.36 524.9 344.48 525.34 344.46 525.02 343.73 525.21 343.17 524.94 341.92 525.24 339.85 517.59 346.91 516.84 347.09 515.4 348.19 514.19 348.54 513.36 348.42 512.32 348.85 509.86 348.49 508.8 348.7 507.97 348.74 507.02 348.17 506.17 348.23 504.32 351.3 504.22 351.47 485.35 357.03 485.9 357.62 486.09 359.01 486.7 359.95 486.68 360.37 487.73 360.69 477.55 363.33 468.89 364.3 461.11 370.5 456.77 379.18 456.18 378.64 456.22 377.98 454.92 376.71 455.31 376.17 455.2 375.78 453.89 375.45 452.21 374.16 451.81 374.09 451.77 374.42 451.4 374.44 451.17 373.88 450.64 374.65 450.07 374.43 449.09 372.42 449.46 371.08 448.25 370.48 447.9 369.85 445.6 367.33 444.95 367.61 431.24 372.32 429.62 371.82 428.69 372.79 428.23 372.73 426.92 370.88 426.38 368.99 425.88 368.29 425.29 368.04 425.01 366.72 414.17 370.46 413.48 370.12 412.15 371.5 410.81 371.26 409.17 370.17 408.42 367.3 408.31 367 407.09 368.7 404.51 369.19 404.03 369.89 404.05 372.49 404.82 373.47 405.34 375.05 405.21 377.41 404.75 378.25 404.52 379.54 399.28 381.75 396.7 382.82 396.29 381.49 395.6 381.77 394.21 381.79 392.87 382.62 392.18 382.75 392.11 382.16 392.4 382.01 392.13 381.63 391.83 379.57 391.96 377.32 391.76 377.25 391.62 376.27 391.86 376.12 391.9 374.78 392.24 374.65 392.49 374.06 392.23 373.77 392.73 373.65 392.59 373.3 392.98 372.73 392.59 372.52 392.4 371.82 392.4 371.07 392.44 370.68 392.88 370.68 393.38 370.52 392.71 367.54 391.88 366.32 391.33 366.21 389.76 364.4 389.41 364.45 389.19 364.16 389.31 363.68 388.68 363.32 388.03 362.17 387.98 361.4 387.51 361.42 387.12 360.88 386.99 360.39 387.19 359.97 386.68 359.75 386.26 358.66 385.86 358.41 385.99 357.8 386.97 357.27 386.38 354.9 385.38 353.09 385.7 352.21 385.15 351.33 383.85 349.22 379.51 342.12 377.58 337.77 376.84 334.87 376.5 334.94 361.72 338.23 360.37 338.47 360.14 338.19 359.87 335.69 359.16 332.21 358.75 331.32 359.02 330.57 358.5 329.01 359.63 328.21 359.98 327.8 359.05 324.89 359.41 322.68 359.32 320.2 359.07 319.68 359.27 317.67 358.72 316.58 359.04 314.56 358.68 313.69 358.67 313.25 358.26 312.41 357.53 313.1 356.1 313.17 356.27 312.45 355.29 311.89 354.8 311.28 354.78 310.25 354.35 308.93 352.21 308.24 352.03 307.65 351.62 307.43 351.97 306.42 351.7 305.47 351.44 305.14 351.61 304.51 351.39 303.32 350.13 303.09 350 301.93 347.88 301.84 347.58 301.41 341.95 302.38 341.87 300.75 349.05 290.72 350.71 292.61 351.05 292.82 351.75 292.57 351.86 293.39 351.65 293.93 352.09 295 352.72 295.56 353.08 296.38 354.14 296.66 359.46 289.76 363.3 292.44 363.62 292.15 363.24 291.34 362.56 290.26 362.35 289.09 363.64 289.18 363.99 289.16 363.66 288.62 363.58 287.38 363.98 285.61 363.43 284.08 363.23 283.6 363.39 281.83 363.07 281.49 362.7 281.29 363.08 281.08 363.3 279.66 363.66 279.08 363.55 277.95 363.1 277.55 363.2 277.14 362.76 277.41 361.92 277.13 362.05 276.16 362.73 274.91 364.22 275.92 363.5 274.87 363.45 274.78 363.18 274.38 362.97 272.86 360.96 270.43 360.93 269.16 359.8 267.07 361.62 265.5 361.66 264.28 360.79 263.71 359.94 263.66 359.35 263.06 359.23 260.05 358.08 258.61 357.99 257.96 357.56 257.46 358.39 257.02 364.45 259.93 385.31 270.2 388.24 271.61 395.4 275.32 404.74 280.14 411.7 284.75 411.47 284.48 411.54 283.45 410.76 282.83 410.72 281.55 410.4 280.74 410.69 278.13 410.25 277.71 408.38 277.4 407.39 274.83 406.34 274.58 405.27 271.61 404.19 269.73 404.14 269.1 403.57 268.57 404.74 267.89 405.16 267.5 405.13 266.41 406.99 265.31 410.25 263.68 410.58 262.12 411.31 261.71 413.05 260.05 413.96 259.75 414.48 259.42 414.66 259.22 417.84 260.7 423.61 263.72 431.8 267.96 441.53 269.18 448.55 270.09 449.78 280.88 463.81 279.77 473.14 279.06 475.82 278.76 476.24 279.05 476.58 278.66 477.11 279.1 476.99 279.55 477.78 279.81 477.87 280.22 478.09 280.05 478.32 280.38 478.84 279.83 479.48 279.85 479.75 280.14 480.22 279.5 480.84 279.94 481.48 279.77 481.59 279.44 481.87 280.17 481.65 280.51 482 280.84 481.88 281.45 482.74 281.64 482.73 281.83 482.28 281.89 482.2 282.33 482.97 283.03 483.04 283.88 484.37 283.97 484.92 283.6 484.96 284.74 485.78 285.51 486 285.41 486.02 285.4 486.72 285.04 488.34 285.64 488.63 286.13 489.52 286.74 490.54 286.74 490.59 286.42 492.15 287.09 492.27 287.43 492.71 287.15 493.33 287.69 493.47 288.25 493.19 288.44 493.84 288.84 495.18 288.53 496.28 289.3 496.4 288.78 496.68 288.8 496.84 288.65 499.97 289.05 501.11 288.72 500.98 288.33 501.55 288.34 502.37 289.78 502.86 289.59 503.04 289.81 503.66 289.45 503.36 289.01 504 288.74 504.55 289.83 504.9 289.99 505.28 290.11 505.33 291.11 506.19 291.23 506.41 290.79 506.61 290.92 514.42 283.8 515.02 282.88 518.34 275.17 520.68 269.63 520.88 268.32 518.83 267.6 517.7 266.64 517.19 266.68 516.74 265.41 515.67 264.52 515.08 263.53 514.14 261.99 513.79 261.58 514.42 260.84 514.56 260.08 514.23 259.7 513.59 259.75 513.62 259.5 515.32 258.21 518.03 256.11 524.38 250.82 524.41 250.79 524.65 248.93 523.71 247.25 523.7 247.23 523.2 245.53 523.35 232.51 523.74 232.17 524.54 232.18 525 231.81 525.52 231.89 526.48 231.12 527.39 231.7 528.33 231.92 529 231.26 529.39 231.12 529.52 231.84 529.84 231.82 530.17 232.2 531.02 231.8 531.25 232.01 531.15 232.59 531.61 232.85 531.99 232.02 533.8 230.81 534.18 230.13 534.3 230.04 534.43 229.72 535.09 230.03 535.34 229.84 535.41 229.19 536.1 228.43 535.7 227.98 536.02 227.36 535.81 227.04 528.01 218.04 517.57 211.15 518.14 206.56 518.2 206.13 514.72 191.75 512.48 182.57 513.33 182.46 513.76 182.83 515.44 182.85 516.14 183.23 515.74 183.93 516.15 184.45 516.53 184.56 517.56 183.82 517.75 183.95 517.57 184.44 518.76 184.95 519.45 184.8 519.92 185.48 520.43 185.55 521.24 185.15 521.71 186.34 522.29 186.38 522.97 186.02 523.37 187.02 525.12 186.94 525.7 186.47 525.87 185.9 526.32 185.76 526.88 186.32 528 186.14 528.28 187.16 528.73 187.13 529.74 187.1 529.92 187.44 529.68 187.72 530.2 188.2 531.06 187.95 531.18 188.88 533.04 188.81 534.29 189.76 535.12 190.32 535.87 190.26 536.06 190.59 536.97 189.84 538.4 189.89 539.58 191.03 539.13 191.75 539.29 191.99 540.03 192.09 540.79 191.62 542.61 192.2 546.57 186.94 546.46 186.05 546.24 185.48 546.79 184.87 546.71 184.02 546.53 183.74 545.97 183.71 545.95 183.08 545.22 182.3 545.81 181.4 544.57 181.32 543.57 180.9 543.41 180.1 543.85 179.43 543.61 178.5 542.67 178.37 542.34 176.84 542.1 176.18 542.18 175.2 541.02 174.33 541.48 173.64 541.45 173.04 540.55 172.68 540.13 171.67 540.8 171.36 541.05 170.19 540.81 169.5 540.89 168.71 541.18 168.17 539.81 167.01 538.79 166.97 538.44 166.72 537.51 165.49 536.13 160.88 535.95 159.6 535.35 158.47 535.61 157.51 535.93 156.92 536.16 156.28 535.83 155.61 536.5 154.86 535.88 154.28 535.92 152.82 536.5 152.4 536.42 151.63 536.86 150.37 536.8 149.83 537.71 149.35 537.86 148.06 538.1 147.85 538.38 147.38 538.11 146.55 538.13 145.68 538.13 144.45 537.87 143.88 537.99 142.29 538 142.27 538.1 141.59 537.26 139.21 537.41 138.64 537.14 138.34 536.88 136.47 536.35 135.17 536.48 133.76 536.02 132.75 536.25 131.03 536.06 130.47 535.99 129.16 535.55 128.37 535.09 125.73 535.06 123.29 534.74 122.55 535.07 120.41 534.58 118.82 534.9 116.77 534.03 113.51 534.13 111.96 533.9 111.69 532.84 111.79 532.64 110.78 533 111.22 533.49 110.76 536.72 115.52 540.7 119.91 546.61 122.95 548.89 123.41 557.17 124.94 561.68 125.81 575.12 134.92 574.94 133.42 574.5 132.62 575.21 127.78 575.59 126.99 574.93 122.84 574.97 122.24 575.72 121.53 575.92 120.71 576.17 119.71 577.09 118.15 577.55 117.96 577.73 117.45 578.24 117.37 578.25 116.54 578.58 116.22 578.42 115.92 578.77 115.77 578.7 115.35 579.41 114.56 579.31 114.18 579.74 113.37 579.62 112.61 579.59 111.97 579.46 104.82 579.36 104.13 579.88 102.57 579.59 102.32 579.72 101.98 579.36 100.62 579.63 99.24 580.19 98.69 579.91 98.25 579.94 96.68 579.47 96.6 580.1 96.01 579.96 95.62 580.17 95.39 579.84 94.72 580.39 94.62 579.96 94.11 580.63 93.29 580.02 92.28 580.85 91.79 582.83 92.04 583.74 91.66 584.57 90.51 584.28 90.19 584.66 89.77 585.17 88.16 584.91 87.93 584.24 88.48 583.5 87.88 582.6 87.87 581.87 87.11 581.44 87.36 580.04 87.35 579.01 87.92 578.2 86.96 576.62 86.94 575.2 87.17 574.94 87.46 574.48 86.66 573.62 87 573.11 86.83 571.8 85.34 571.55 85.36 571.64 85.05 571.24 84.62 570.97 84.5 572.19 75.94 572.6 72.92 572.86 72.24 573.65 71.44 573.08 70.67 573.03 69.88 573.45 69.5 573.51 67.97 572.98 66.54 571.65 65.31 570.5 64.7 569.83 64.07 569.79 63.74 568.28 63.17 567.93 62.06 568.26 61.05 568.32 60.77 567.3 59.26 567.38 58.49 567 57.17 567.16 56.51 566.42 54.98 567.47 53.78 567.16 51.36 567.63 50.14 568.06 49.74 560.88 40.97 557.2 36.4 552.65 30.64 557.96 19.98 564.96 6.09 566.74 2.78 567.68 2.11 568.75 3.01 569.35 3.03 572.68 3.17 573.21 3.41 574.09 4.43 574.17 5.06 574.29 5.97 574.77 7.1 574.79 7.11 575.01 7.43 576.22 8.19 576.71 9.5 576.32 9.96 576.4 12.65 576.41 12.8 576.44 12.87 576.59 13.15 577.73 14.85 578.22 14.96 578.58 14.71 579.9 14.9 581.76 14.31 581.99 14.15 582.15 13.81 582.4 13.38 583.51 14.65 584.33 15.02 590.56 16.36 592.95 16.88 594.43 18.25 596.2 19.32 597.33 21.31 598.29 21.4 599.17 22.17 599.97 22.18 601.43 21.44 604.57 21.04 605.87 20.59 606.89 20.64 610.86 21 612.06 21.82 615.89 25.35 617.65 26 618.48 26.71 619.3 28.91 619.42 31.14 619.47 32.14 619.76 33.18 621.27 35.52 623.62 36.46 623.91 36.4 624.15 36.35 624.91 35.9 626.07 33.95 626.2 29.13 626.5 28.14 629.04 24.31 630.55 23.61 633.9 24.4 636.17 25.76 636.96 26.98 636.69 28.84 636.21 29.79 635.41 30.51 634.44 30.95 633.29 32.24 633.05 33.36 633.5 34.33 634.33 36 635.85 37.53 638.57 39.51 641.2 40.46 641.86 40.39 643.51 39.39 645.83 37.23 647.07 36.71 648.6 36.76 648.89 37.55 650.49 39.24 651.01 40.45 651 41.13 649.92 42.26 648.57 42.92 648.19 43.54 648.63 44.58 649.85 45.01 648.54 46.57 648.76 48.46 649.3 48.99 649.76 49.44 651.18 51.02 651.77 53.55 651.75 53.57 651.19 54.4 654.07 60.12 655.08 63.19 657.27 65.43 657.28 65.44 657.99 67.06 658.45 67.49 658.47 68.23 657.87 68.7 657.65 70.12 658.33 70.35 659.76 70.65 661.53 72.05 662.55 71.61 664.14 71.91 664.41 71.96 664.78 71.49 665.13 71.45 667.41 71.82 668.15 72.41 668.33 73.23 669.14 73.29 670.26 74.02 670.81 73.8 671.9 74.13 672.07 74.59 672.78 74.81 673.72 76.29 673.36 77.66 672.6 78.68 672.55 79.2 671.92 79.67 671.83 80.3 672.22 80.56 672.15 81.45 671.66 81.76 671.47 82.34 671.15 81.78 670.44 82.19 670.75 82.8 670.47 84.47 670.87 85.26 672.17 86.11 672.39 86.57 672.95 86.75 673 87.11 674.4 87.52 674.58 87.97 674.25 88.7 673.86 88.21 673.08 88.31 671.9 89.48 671.68 90.74 670.51 91.03 670.33 91.29 670.3 93.33 670.3 93.64 670.52 94.43 670.59 94.79 670.67 95.94 671.43 98.01 672.06 98.16 672.29 98.9 673.81 100.14 675.5 100.94 676.23 101.13 676.25 101.43 675.61 102.22 675.46 103.16 675.74 103.63 675.66 104.2 674.99 105.25 674.74 106.89 673.8 108.53 673.81 108.99 674.57 109.39 676.01 112.46 676.74 113.17 677.32 113.28 678.57 112.83 679.3 112.8 679.83 113.49 681.01 113.66 682.89 113.98 683.35 113.83 685.56 114.95 686.76 115.56 687.44 116.79 687.38 117.95 687.38 118.09 687.37 118.18 687.38 118.28 687.6 119.96 689.21 123.62 689.37 123.99 691.08 126.14 691.24 126.78 690.57 129.58 690.79 130.15 691.92 130.8 693.81 140.27 693.97 140.64 694.25 141.6 692.17 142.36 690.49 142.5 690.21 143.15 688.64 144.1 688.22 144.06 687.52 144.54 687.36 144.98 686.84 144.74 686.58 145.15 686.2 145.08 686.62 145.55 686.07 145.91 685.92 146.58 686.33 146.78 685.07 147.21 685.25 147.95 685.04 148.64 684.63 148.76 687.6 153.3 687.89 154.81 688.22 155.16 687.98 155.74 687.5 156.92 687.72 157.58 687.64 157.56 687.34 157.49 686.95 157.72 687.06 158.22 686.76 158.51 686.07 158.37 686.14 158.88 686.66 159.23 686.48 160.05 686.85 160.2 686.78 160.66 687.22 160.77 686.86 161.08 686.87 161.11 688.15 169.41 678.35 173.33 675.77 174.36 673.64 175.13 671.81 175.09 671.36 173.09 670.97 172.57 670.41 171.84 670.23 171.59 669.78 170.97 669.08 170.78 668.69 170.84 667.68 171.12 667 170.54 666.39 170.29 665.58 170.99 664.41 170.81 663.85 171.58 662.62 171.54 661.62 171.38 661.02 170.95 660.19 170.93 659.6 170.3 657.75 170.71 657.09 170.81 656.65 171.89 656.68 172.63 656.65 173.78 657 174.71 656.35 176.18 655.58 177.3 655.14 177.3 654.75 177.96 654.95 178.98 654.45 179.68 654.91 180.08 655.5 181.63 654.93 181.99 654.76 182.65 654.85 184.15 655.5 185.43 655.71 186.96 656.57 187.84 656.89 188.18 657.4 187.52 657.83 187.79 657.96 188.68 659.24 189.02 659.38 189.41 659.26 189.71 658.89 190.75 659.29 190.97 659.89 192.37 662.11 193.46 662.69 194.46 663.39 194.73 663.75 193.88 665.21 194.39 665.3 194.69 665.07 195.22 665.54 196.22 665.37 196.63 665.86 197.2 666.26 197.23 666.3 197.85 666.82 198.51 667.14 198.46 667.42 199.35 666.68 200.82 666.15 201.11 666.14 201.51 666.19 201.56 666.5 201.84 666.49 202.28 666.88 202.56 667.93 202.68 668.2 203 668.27 203.75 667.89 204.49 668.27 205.02 667.94 205.42 669.88 207.36 670.88 207.48 671.44 207.27 673.39 208.79 673.47 208.85 673.91 208.43 674.68 208.82 675.31 208.49 675.63 208.75 675.1 209.05 675.25 209.54 675.04 209.91 675.38 210.26 675.35 210.86 674.36 211.32 674.68 212.05 674.13 212.29 674.4 212.91 674.62 212.71 674.85 212.84 674.89 212.97 674.85 213.1 674.64 213.26 673.96 213.75 674.7 214.58 674.14 214.83 674.28 215.2 673.37 216.11 673.37 216.42 673.51 217.19 674.01 217.93 674.22 217.91 674.28 218.25 674.31 218.3 674.26 218.63 673.83 218.61 673.76 218.61 673.76 218.62 673.76 218.78 674.55 219.39 674.47 219.44 673.75 219.72 673.64 220.09 674.15 220.32 674.53 220.16 675 220.68 675.55 222.49 675.98 222.61 676.07 223.26 675.85 223.37 675.11 223.57 675.36 224.23 676.13 223.99 676.34 224.2 676.18 224.89 676.59 224.94 676.74 224.48 677.3 224.39 677.39 225.02 677.06 225.3 677.21 225.52 678.09 226.13 678.01 226.57 678.58 226.48 678.69 225.91 679.26 225.55 679.16 225 680.19 225.07 680.48 225.56 681.04 225.62 681.14 226.52 680.91 226.86 681.27 226.94 681.45 227.66 681.93 227.36 682.1 227.58 682.73 226.73 683.3 226.63 684.12 226.95 683.34 227 682.94 227.34 683.83 227.61 683.93 228.04 685.26 227.91 685.31 227.97 685.44 228.1 685.19 228.59 685.07 228.81 684.32 228.84 684.21 229.82 684.84 230.24 684.99 230.04 685.49 230.18 686.13 231.1 686.52 231.17 687.32 231.87 688.11 231.94 688.56 232.31 687.77 232.83 688.16 233.65 689.08 234.08 689.26 234.19 689.61 233.98 689.99 234.41 691.16 234.43 691.52 234.98 692.41 234.5 693.3 235.52 694.67 235.5 694.9 236.66 695.53 236.45 696.13 236.6 696.78 235.7 697.33 236.07 697.05 237.41 697.94 237.7 698.3 237.38 699.01 237.81 699.37 237.52 699.22 237.14 700.02 235.93 699.79 235.14 700.38 235.09 700.71 234.75 700.82 233.96 701.47 234.42 701.93 233.94 702.35 233.97 702.65 234.84 703.6 235.5 703.83 235.57 704.15 235.38 704.6 235.68 705.66 234.74 705.97 234.85 706.5 235.15 705.97 235.81 706.56 236.6 707 236.31 706.8 235.98 707.25 235.64 707.48 235.74 707.67 235.83 707.78 235.88 708.27 236.58 708.52 236.22 711.26 236.28 711.54 235.19 712.23 234.56 716.02 234.18 717.01 233.82 719.53 232.15 720.74 231.13 721.68 230.11 722.55 228.99 722.73 228.78 724.15 228.04 724.94 228.13 724.58 228.45 724.89 228.69 724.67 229.58 721.42 232.86 719.51 235.92 713.42 247.93 711.48 251.42 707.6 260.25 703.54 268.95 703.1 271.22 700.69 274.61 699.36 277.16 698.13 278.71 697.8 279.97 697.18 281 692.05 288.64 692.24 288.81 690.74 291.09 686.37 296.72 682.82 301.98 682.62 302.28 681.94 303.12 681.66 303.03 681.9 302.06 681.55 301.23 680.98 301.21 680.8 301.63 680.27 301.35 679.43 301.46 678.91 300.57 677.92 300.65 677.78 300.88 677.06 300.3 676.1 300.44 673.23 302.64 666.98 306.29 665.85 305.54 666.29 305.05 666.6 304.91 666.44 304.19 665.34 303.69 665.49 302.33 664.93 302.49 664.66 302.2 664.08 302.44 664.19 301.94 663.15 300.82 662.38 300.51 662.12 300.34 662.31 299.99 662.1 299.66 661.7 299.72 661.46 299.42 661.24 298.14 660.91 297.93 661.17 297.49 660.8 297.04 661.17 296.36 661.51 296.35 661.16 295.81 661.8 295.46 661.21 295.17 661.21 294.96 662.01 294.44 662.57 294.85 662.8 294.28 662.3 294.15 662.07 293.69 660.87 293.44 660.63 293.06 660.96 292.56 659.93 291.86 652.25 293.25 643.91 289.98 636 292.61 634.58 292.17 632.83 290.83 633.1 291.64 632.12 293.13 631.91 296.96 631.73 298.24 632.04 298.41 631.72 299.78 631.38 300.54 631.27 302.12 631.73 303.47 632.3 304.07 631.67 304.45 630.77 304.11 629.49 304.67 628.76 303.95 627.89 304.01 627.39 303.61 625.53 310.29 625.06 309.43 624.39 309.15 623.73 310.42 623.5 310.63 622.66 314.68 621.55 314.35 619.9 314.45 619.77 314.79 619.07 317.63 618.08 317.89 617.97 318.96 617.5 319.31 617.51 321.71 619.84 324.6 620.16 325.39 620.1 326.8 619.85 328.16 619.72 328.48 614.17 328.3 613.7 328.31 613.47 328 610.84 328.1 610.34 327.63 609.39 327.56 608.88 327.95 607.97 328.11 607.81 327.51 607.59 328.35 608.42 329.06 608.64 330.13 609.14 330.99 609.42 331.16 609.67 332.03 608.73 333.32 608.86 334.17 608.44 334.79 608.6 335.46 607.55 336.96 608.17 337.63 609 337.89 609.84 337.72 611.1 336.64 615.79 335.03 618.97 333.87 619.21 335.08 617.96 336.23 617.25 337.27 617.31 338.36 618.44 339.41 618.62 340.11 618.29 341.54 616.95 343.9 616.34 345.35 614.85 346.85 614.41 347.78 612.67 349.76 611.9 351.66 611.91 352.79 611.59 353.18 610.93 354.28 611.07 356.5 611.06 357.64 610.67 358.54 611.25 360.19 Z" id="3" data-ddd="75" fill="rgba(1, 40, 66, 1)" stroke="rgba(0, 153, 255, 1)" stroke-width="2"/>
<path d="M 214.28 142.33 232.63 142.19 234.11 140.93 235.2 140.76 235.8 140.96 236.24 140.73 236.67 140.04 236.7 139.07 237.72 138 239.15 138.07 239.48 138.16 239.71 138.5 240.64 138.73 241.89 139.64 243.78 138.72 244.69 136.95 245.21 136.88 246.67 136.08 246.59 135.34 247.57 134.89 247.45 134.46 253.3 133.91 253.37 134.37 253.9 134.85 253.87 136.26 254.27 137.82 254.04 139.93 253 141.98 253.47 144.78 253.36 146.52 253.84 147.09 253.76 148.06 253.27 148.89 253.97 150.43 253.76 153.62 253.77 154.5 254.14 155.17 254.03 155.65 253.67 156.53 253.82 157.46 253.56 158.15 253.83 158.77 253.86 160.1 253.53 160.82 254.15 161.62 254.25 162.58 253.97 165.2 253.6 166.03 254 167.72 253.55 168.6 253.59 170.95 253.64 171.28 228.97 185.13 228.24 185.12 227.89 185.71 226.66 185.83 226.35 186.23 225.75 185.76 225.03 185.25 225.49 184.38 225.39 184.02 224.6 184.71 223.42 184.77 223.6 185.4 223.43 186.06 221.97 186.33 220.55 185.41 220.1 184.27 219.05 183.55 218.64 182.55 217.52 181.78 216.56 181.73 216.29 182.14 215.7 181.99 215.21 182.51 213.93 182.13 213.02 182.34 211.33 183.96 211.15 185.78 209.72 186.39 209.19 187.55 208.22 188.23 206.29 187.82 205.75 188.69 204.67 188.6 204.08 188.84 203.38 189.74 204.98 192.89 206.44 194.54 207.98 197 210.95 199.78 211.35 200.36 211.42 201.18 211.81 201.63 212.4 203.19 212.4 204.4 212.86 205.93 214.67 210.37 214.72 211.48 215.35 212.32 215.42 213.25 216.91 217.28 218.18 219.52 218.36 220.83 218.4 220.89 218.86 221.46 219.38 223.49 219.83 224.25 219.67 224.99 220.45 228.17 221.26 229.85 223.51 240.38 224.75 243.23 225.71 246.34 228.17 250.44 228.8 252.17 232.1 250.68 232.54 251.03 233.19 251.01 233.59 251.61 233.62 252.68 234.21 252.83 234.16 253.54 235.41 254.58 235.66 256.27 236.21 256.21 236.62 256.87 238.09 257.39 239.73 256.87 240.16 257.05 242.09 256.16 242.35 256.58 242.79 256.67 242.79 255.88 243.3 255.95 243.62 256.4 244.55 256.12 244.91 256.35 246.52 256.29 246.99 256.6 248.49 256.04 248.86 255.59 249.59 256.1 249.94 255.7 250.42 255.76 251.38 254.63 252.67 255.01 252.9 254.76 254.15 254.91 254.26 254.5 255.94 254.3 256.24 251.1 255.64 250.07 254.98 249.67 253.52 247.37 253.26 246.01 254.24 241.88 255.1 240.21 256.39 239 257.26 238.77 259.54 238.92 260.25 238.52 261.01 236.13 288.46 243.88 291.72 244.79 303.03 250.56 304.33 250.44 305.53 249.65 305.93 249.92 307.84 249.76 308.24 249.73 309.58 248.85 310.55 249.34 311.06 249.3 311.19 249.56 312.68 249.58 314.96 248.83 316 249.31 317.21 250.92 319.45 251.4 319.7 251.73 320.76 251.99 320.98 252.63 322 252.87 323.3 254.07 324.31 250.65 324.52 250.18 325.66 251.24 325.88 251.92 326.63 252.65 328.52 253.27 330.59 252.38 331.35 252.41 332.36 252.99 332.96 252.61 332.85 251.8 333.2 250.99 333.04 249.89 333.22 249.24 333.26 249.28 339.58 256.22 346.59 263.94 346.33 265 345.72 265.53 345.53 266.13 346.5 266.99 346.6 267.83 347.28 268.35 347.51 269.88 346.73 270.52 347.27 270.84 347.92 271.77 347.74 271.9 342.31 267.64 342.76 268.02 343.12 268.9 343.33 269.49 343.05 270.27 343.17 270.99 342.51 271.69 342.99 273.27 342.16 275.2 344.41 277.02 355.39 290.81 348.53 290.14 349.05 290.72 341.87 300.75 341.95 302.38 347.58 301.41 347.88 301.84 350 301.93 350.13 303.09 351.39 303.32 351.61 304.51 351.44 305.14 351.7 305.47 351.97 306.42 351.62 307.43 352.03 307.65 352.21 308.24 354.35 308.93 354.78 310.25 354.8 311.28 355.29 311.89 356.27 312.45 356.1 313.17 357.53 313.1 358.26 312.41 358.67 313.25 358.68 313.69 359.04 314.56 358.72 316.58 359.27 317.67 359.07 319.68 359.32 320.2 359.41 322.68 359.05 324.89 359.98 327.8 359.63 328.21 358.5 329.01 359.02 330.57 358.75 331.32 359.16 332.21 359.87 335.69 360.14 338.19 360.37 338.47 361.72 338.23 376.5 334.94 376.84 334.87 377.58 337.77 379.51 342.12 383.85 349.22 385.15 351.33 385.7 352.21 385.38 353.09 386.38 354.9 386.97 357.27 385.99 357.8 385.86 358.41 386.26 358.66 386.68 359.75 387.19 359.97 386.99 360.39 387.12 360.88 387.51 361.42 387.98 361.4 388.03 362.17 388.68 363.32 389.31 363.68 389.19 364.16 389.41 364.45 389.76 364.4 391.33 366.21 391.88 366.32 392.71 367.54 393.38 370.52 392.88 370.68 392.44 370.68 392.4 371.07 392.4 371.82 392.59 372.52 392.98 372.73 392.59 373.3 392.73 373.65 392.23 373.77 392.49 374.06 392.24 374.65 391.9 374.78 391.86 376.12 391.62 376.27 391.76 377.25 391.96 377.32 391.83 379.57 392.13 381.63 392.4 382.01 392.11 382.16 392.18 382.75 392.87 382.62 394.21 381.79 395.6 381.77 396.29 381.49 396.7 382.82 399.28 381.75 404.52 379.54 404.75 378.25 405.21 377.41 405.34 375.05 404.82 373.47 404.05 372.49 404.03 369.89 404.51 369.19 407.09 368.7 408.31 367 408.42 367.3 409.17 370.17 410.81 371.26 412.15 371.5 413.48 370.12 414.17 370.46 425.01 366.72 425.29 368.04 425.88 368.29 426.38 368.99 426.92 370.88 428.23 372.73 428.69 372.79 429.62 371.82 431.24 372.32 444.95 367.61 445.6 367.33 447.9 369.85 448.25 370.48 449.46 371.08 449.09 372.42 450.07 374.43 450.64 374.65 451.17 373.88 451.4 374.44 451.77 374.42 451.81 374.09 452.21 374.16 453.89 375.45 455.2 375.78 455.31 376.17 454.92 376.71 456.22 377.98 456.18 378.64 456.77 379.18 456.91 379.8 457.34 380.21 457.18 380.54 457.75 380.81 457.76 381.16 458.58 381.88 459.37 382.08 460.07 382.86 460.46 382.87 460.62 383.41 460.36 384.41 459.94 384.62 459.75 385.35 460.31 386.32 461.03 386.68 461.08 387.14 461.52 387.51 461.95 387.6 462.28 388.41 463.12 389.19 462.85 389.47 463.23 389.78 463.13 391.27 463.37 392.13 463.87 392.37 463.56 392.91 463.91 393.08 463.87 393.27 463.86 393.8 463.49 394.31 464.08 395.18 463.69 395.23 463.34 395.78 463.7 396.64 463.6 397.27 462.64 398.52 462.03 398.83 462.31 398.92 462.14 399.22 462.59 399.19 462.73 399.99 462.68 400.73 461.79 401.81 462.3 402.82 461.45 402.93 460.91 403.62 460.87 404.18 461.42 404.98 460.8 405.92 461.21 405.99 461.5 406.71 461.13 407.11 461.59 407.97 461.1 407.92 460.67 408.31 460.97 408.86 462.63 409.27 462.55 410.05 463.05 410.63 462.83 411.56 462.5 411.74 462.75 411.81 462.87 412.37 463.35 412.86 463.85 412.94 465.07 414.49 466.38 415.06 465.33 415.37 464.52 415.94 463.14 414.94 462.22 414.88 461.42 415.36 461.06 415.23 460.52 414.18 460.01 414.79 457.41 414.81 456.86 414.76 455.53 414.71 451.22 415.91 448.68 415.5 447.7 417.76 446.72 418.76 445.55 419.14 444.5 419.3 444.36 419.57 445.1 420.22 446.14 419.9 446.38 420.84 445.27 421.44 444.31 420.63 443.31 420.35 442.3 421.59 442.6 422.25 442.54 422.9 441.25 423.05 440.74 423.53 441.35 424.4 441.18 424.75 440.83 424.89 440.89 425.28 441.11 425.94 446.46 429.17 462.78 439.07 466.45 440.95 476.39 445.94 480.69 448.16 481.28 448.47 486.96 449.38 498.02 451.15 498.63 451.68 500.9 447.89 501.59 447.59 503.45 445.15 504.15 445.65 504.16 447.02 504.93 447.5 505.29 447.18 506.55 446.9 507.31 447.39 507.18 446.57 507.69 446.22 508.01 446.34 508.11 445.81 508.52 445.5 508.96 445.6 509.34 446.07 509.26 447.01 509.77 448.42 510.16 448.46 510.24 448.23 510.59 447.83 510.41 446.85 510.76 447.05 513.6 458.08 514.5 461.75 513.72 461.74 513.43 462.4 513.38 462.8 512.89 465.39 512.37 465.77 511.19 465.62 510.67 467.22 509.96 467.84 509.98 468.28 509.27 468.21 509.23 467.28 508.06 466.26 508.24 465.86 507.2 465.76 507.08 466.01 506.69 465.75 506.7 465.56 505.86 465.33 505.15 465.53 504.55 465.26 503.88 465.91 504.25 466.34 504.1 466.84 503.65 467.55 502.94 467.55 502.75 467.62 502.85 468.7 502.64 469.74 502 469.92 501.7 470.74 501.95 471.32 501.78 471.83 501.52 473.48 500.77 474.6 500.86 474.85 501.19 475.64 500.96 476.08 501.17 476.63 500.69 477.31 500.02 477.15 499.85 477.57 499.67 478.35 500.5 479.09 500.32 480.22 498.08 479.35 495.07 478.87 494.67 478.91 494.53 479.27 494.51 481.06 494.12 481.35 494.04 482.46 494.24 483.29 493.85 483.57 493.73 483.74 493.21 483.75 492.02 482.64 491.77 482.69 491.52 483.51 492.59 486.36 492.74 489.84 491.82 490.88 491.3 493.18 491.47 494.81 492.13 495.97 493.11 496.55 493.4 497.55 493.43 498.39 493.94 499.24 501.16 500.73 508.97 502.29 509.03 502.79 508.3 503.53 507.87 503.63 507.66 504.5 506.76 504.07 505.84 503.96 505.83 504.28 506.97 505.8 506.94 509.09 508.2 509.36 508.43 509.82 508.87 509.98 509.24 511.45 509.66 511.97 509.67 513.34 510.1 513.89 511.16 514.77 511.88 515.12 511.98 515.16 512.51 515.16 512.68 515.45 513.39 515.27 513.55 515.12 514.38 515.45 514.63 514.97 515.41 514.84 515.64 514.25 515.96 514.3 515.98 514.52 516.68 514.4 516.76 514.6 517.81 514.38 518.68 514.65 519.1 514.49 519.65 515.19 520.58 515.41 521.83 515.03 522.17 514.66 522.29 513.82 523.23 514.41 523.5 513.79 523.78 513.75 523.87 513.35 524.85 513.35 525.01 513.14 525.31 513.57 525.68 513.58 529.46 529.97 535.08 549.32 534.83 549.33 534.82 548.96 533.85 547.93 532.08 547.55 531.78 546.92 530.69 547.07 529.66 547.45 528.71 546.6 527.78 546.57 527.14 546.26 526.45 546.47 526.55 545.58 526.3 545.12 525.11 543.79 524.03 543.43 524.03 541.93 521.78 542.04 521.96 541.33 522.91 540.21 522.58 539.94 520.26 540.98 519.87 540.92 519.4 540.52 520.42 539.3 518.71 538.54 517.35 538.85 516.47 538.72 515.29 539.65 514.68 539.49 514.66 538.97 515.19 538.15 514.4 537.7 514.02 535.98 512.92 535.94 512.39 536.32 511.52 535.69 511.47 536.11 510.28 536.8 510.09 536.23 510.7 535.6 509.54 535.32 510.01 534.7 509.89 534.25 509.47 533.88 509.01 533.86 507.91 534.04 507.47 533.87 506.95 534.14 505.79 533.74 504.93 533.9 504.51 534.59 506.04 535.95 506.21 536.38 505.52 537.5 504.9 537.76 504.58 537.62 504.2 537.6 503.72 538.23 503.65 539.28 503.06 539.12 502.4 539.45 502.32 539.96 501.95 540.15 502.28 540.55 502.25 540.98 502.58 541.72 503.22 541.94 503.92 541.54 505.11 541.61 507.29 544.71 506.85 545.29 506.95 545.78 506.92 547.02 506.6 547.62 506.61 548.49 507.03 549.24 506.78 550.06 506.98 552.35 505.8 554.29 504.32 555.09 504.53 555.61 504.4 556.38 502.52 559.82 502.04 560.54 501.18 559.9 501.15 560.37 500.2 561.4 500.1 563.11 499.37 564.14 499.07 566.25 498.62 566.79 499.09 568.35 497.56 568.89 497.02 568.76 496.98 569.09 496.52 569.06 496.07 569.47 495.45 568.69 494.53 569.36 493.2 569.28 492.46 569.68 491.95 569.49 491.19 569.96 491.04 569.37 490.42 569.42 489.67 569.08 488.92 569.43 488.52 569.19 488.1 569.9 487.66 569.2 486.89 569.62 486.5 569.15 486.18 569.07 486.12 569.37 485.15 568.58 484.83 568.72 484.34 568.51 483.76 566.4 482.26 564.92 481.56 564.46 480.13 565.97 479.73 566.18 478.9 565.4 477.99 565.48 476.99 566.57 477.06 567.87 475.38 567.66 474.36 568.36 473.53 568.29 472.78 567.14 473.22 566.19 471.22 565.86 471.26 565.13 470.37 564.89 470.69 563.95 470.63 563.85 470.17 563.13 469.58 563 468.39 561.49 468.07 561.68 467.75 562.63 467.17 562.52 465.9 560.82 464.26 560.19 464.29 559.83 463.06 557.96 462.99 557.84 462.31 557.64 461.28 558.15 460.36 558.3 459.45 559.02 459.94 560.29 459.04 560.81 457.59 561.36 456.62 560.57 456.17 559.66 456.6 558.72 455.48 557.48 454.08 556.42 453.85 556.24 453.75 556.17 452.78 556.23 452.54 556.68 452.62 557.97 451.98 558.31 451.79 558.95 451.26 558.8 450.59 559.29 448.7 559.83 447.88 559.53 447.06 559.63 446.14 557.22 445.19 556.83 444.89 557.22 444.45 556.88 443.42 556.85 442.34 556.24 441.41 557.85 441.05 559.61 440.59 559.74 439.15 561.19 439.12 561.21 438.98 561.34 436.63 561.34 435.29 562.22 433.4 561.77 432.21 563.28 429.97 563.62 429.42 563.91 428.87 565.42 428.19 565.87 427.26 565.05 426.23 564.99 424.08 564.19 422.64 563.16 420.93 563.19 419.67 563.92 418.49 564.06 417.45 563.44 416.59 563.31 415.67 563.65 413.84 563.53 413.6 563.75 412.74 555.38 411.64 544.68 411.16 544.24 409.16 542.42 403.24 537.02 377.41 513.94 376.96 513.53 376.28 513.53 375.74 514.1 373.73 514.55 373 514.74 372.76 514.81 371.47 514.74 371.35 514.73 370.75 516.36 369.44 517.49 368.43 517.69 368.03 518.17 367.13 518.19 366.67 519.26 365.03 519.35 363.01 518.71 362.35 518.78 361.81 518.04 359.56 518.53 358.95 518.64 355.68 519.35 354.79 520.2 354.25 520.2 353.9 519.88 353.73 518.78 353.05 518.65 352.32 516.89 351.34 515.92 350.39 515.7 349.7 515.03 349.39 514.27 349.43 513.39 348.56 513.24 347.87 512.35 347.37 512.49 347.12 513.42 346.37 513.69 345.57 513.45 344.51 513.88 343.65 513.39 342.11 514.16 340.73 515.41 339.9 514.48 339.27 514.78 338.57 514.12 336.75 513.38 336.13 512.94 335.55 511.88 335.24 511.79 333.7 513.3 332.54 511.75 332.04 511.2 331.99 511.14 331.84 511.19 330.45 511.73 328.48 510.76 326.83 510.43 326.87 508.4 327.3 507.41 324.25 506.97 322.2 504.68 321.26 504.37 321.17 504.32 320.67 504.32 319.9 503.88 319.65 503.03 318.13 502.47 317.63 502.7 316.32 500.87 315.77 500.73 315.76 500.71 315.57 500.2 314.37 499.76 313.52 500.78 312.58 501.35 311.84 500.57 310.26 499.73 310.46 499.46 310.12 499.31 309.91 498.65 309.67 498.66 309.59 499.11 308.33 498.1 308.03 498.27 307.32 498.03 306.73 497.41 306.76 496.96 306.6 496.73 306.33 496.47 305.62 496.28 305.7 496.61 304.94 496.72 304.75 496.22 303.95 496.08 302.96 495.05 302.46 493.66 299.66 493.11 298.28 492.17 296.16 490.58 295.65 489.73 294.87 489.38 294.22 488.52 293.3 488.11 293.35 487.82 293.69 487.75 293.67 487.67 293.33 487.28 292.65 487.64 292.35 487.51 291.45 487.15 291.15 486.59 290.94 487.02 290.69 487 290.2 485.7 289.82 485.94 289.04 485.68 289.2 484.88 288.23 483.83 288.11 482.86 287.04 482.89 285.11 482.11 284.48 482.41 283.12 481.94 282.51 482.36 281.25 481.73 281.24 481.23 280.35 480.89 279.55 481.47 279 481.53 278.16 480.72 277.7 481.36 277.15 481.48 276.8 482.08 276.2 480.93 275.34 480.28 274.91 480.14 274.67 480.59 274.26 480.58 273.26 479.58 271.52 479.61 269.58 478.37 269.36 479.19 268.03 478.29 267.13 478.98 265.47 479.15 265.01 478.86 264.21 478.84 262.94 479.37 262.57 479.23 262.14 479.58 261.44 479.57 261.2 480.2 260.84 480.37 260.07 480.37 259.05 479.87 258.39 480.51 257.54 480.68 257.25 481.27 256.29 481.93 254.93 482.08 254.53 482.21 252.19 483.03 250.97 484.12 250.14 483.79 249.88 483.97 249.92 484.29 249.4 484.03 249.42 484.29 248.96 484.44 248.54 485.1 247.73 485.37 247.34 485.84 247.73 486.74 247.21 487.37 246.24 487.09 245.78 487.53 246.8 488.65 246.5 489.2 245.87 489.37 244.76 489.32 244.43 489.83 243.44 489.77 243.55 490.63 243.11 490.39 242.66 490.5 242.34 491.13 241.86 491.23 241.25 490.48 241.43 489.3 241.66 489.16 241.41 488.75 238.55 487.32 238.02 486.2 237.23 486.2 236.03 486.87 235.34 486.91 234.17 486.16 231.9 485.73 231.33 485.13 230.97 485.11 230.7 484.24 230.75 484.54 230.18 484.74 229.95 484.43 229.46 484.36 229.75 483.92 228.44 484.21 227.94 484.6 227.15 484.54 227.17 483.86 227.75 483.4 227.29 483.12 227.06 482.41 226.65 482.09 224.37 482.3 223.43 481.62 222.76 481.62 222.02 481.12 220.86 481.24 217.24 480.06 216.28 480.23 215.95 479.29 215.28 479.39 215.18 478.61 214.97 478.51 214.72 478.96 214.38 478.58 214.71 478.02 214.36 477.78 214.87 477.58 214.2 477.19 215.07 477.3 214.51 476.73 215.35 476.15 215.09 475.56 215.43 475.43 214.89 475.15 215.08 474.01 214.91 473.71 214.54 473.66 214.42 474.37 214.18 474.09 214.45 473.39 214.09 473.27 214.87 471.57 214.55 471.49 215.13 468.23 218.4 462.18 219.38 457.99 220.51 456.7 220.78 456.28 222.21 454.08 221.47 453.87 220.89 453.97 220.36 453.56 220.22 453.01 219.74 453.05 219.7 452.63 219.15 452.82 219.41 451.97 218.84 452.28 218.07 451.89 217.21 452.72 217.25 452.04 216.88 452.51 216.57 452.43 216.88 452.08 216.78 451.64 216.09 452.02 215.44 451.8 215.21 452.08 214.62 451.95 214.54 451.6 213.84 451.54 213.72 450.5 213.68 451.1 212.96 450.92 212.74 450.52 212.68 451.04 212.23 450.84 212.38 451.22 212.19 451.41 211.89 451.23 211.74 450.7 211.5 450.7 211.22 450.73 211.03 451.46 210.35 450.68 209.8 451.42 209.48 450.24 209.11 450.24 208.71 451 208.77 450.41 208.26 450.32 207.66 448.99 207.55 449.31 206.78 449.63 206.64 449.13 206.02 448.88 206.35 448.49 204.8 448.47 204.56 448.86 204.08 448.8 204.08 449.19 203.27 449.19 202.58 450.16 202.29 449.64 202.04 449.94 201.43 449.83 200.82 449.79 200.8 449.27 200.5 449.64 199.94 449.44 199.56 449.9 199.57 449.48 199.2 449.32 199.47 448.73 198.85 448.6 198.85 449.1 198.39 449.31 198.5 448.56 197.97 448.96 197.53 448.95 197.01 448.47 196.91 447.83 196.5 447.8 195.58 449.07 194.7 449.63 194.07 449.34 194.67 449.06 194.57 448.22 192.8 447.71 192.45 448.55 192.25 448.56 191.76 448.44 191.01 447.76 189.57 447.47 189.58 447.21 188.96 446.86 188.91 446.08 188.48 445.81 188.26 446.73 186.5 446.39 186.94 446.88 186.58 447 186.65 447.74 186.46 447.6 185.97 447.25 185.83 447.36 185.8 447.39 186.2 447.67 185.96 447.91 185.42 447.28 184.32 446.85 183.69 447.31 183.33 447.31 183.43 447.12 183.09 446.94 182.44 447.34 182.41 447.34 182.25 447.34 181.63 447.32 180.58 446.37 180.25 446.71 178.7 447.07 178.73 447.64 177.82 447.72 178.27 448.15 177.73 447.97 177.74 448.38 177.06 448.9 176.42 448.81 176.12 449.04 175.82 448.68 175.87 449.08 175.59 449.28 174.88 449.5 174.84 449.16 174.49 449.24 174.28 448.95 174.1 449.33 173.29 449.62 171.69 450.19 171.03 451.24 169.88 451.96 169.29 452.07 168.95 451.86 168.63 452.31 168.21 452.14 168.35 452.37 167.57 452.75 167.26 453.25 166.38 453.18 165.99 452.76 165.14 453.04 164.78 453.38 163.98 453.21 163.09 453.5 162.73 454.38 161.79 453.91 161.58 454.18 161.14 454.15 161.22 454.81 160.61 454.58 160.31 455.06 160.17 455.19 160.01 455.03 159.53 455.24 158.63 456.3 158.38 456.12 158.09 456.34 157.61 456.13 157.15 456.88 156.45 456.96 155.83 458.39 155.48 458.06 155.03 458.19 155.24 458.52 154.87 458.67 154.43 458.61 154.36 458.32 153.85 458.49 153.5 459.43 153.92 460.1 153.39 460.24 153.14 460.68 153.02 460.09 152.66 460.73 151.55 460.12 151.59 460.5 151.09 460.66 151.18 461.37 150.78 461.32 150.54 462.71 150.23 462.46 149.82 462.58 149.64 462.25 149.16 462.8 148.79 462.65 148.64 463.32 147.67 463.9 147.36 464.05 147.25 464.1 146.89 463.87 146.78 464.42 146.22 464.94 145.94 464.69 145.74 464.92 145.23 464.86 144.24 465.27 143.81 465.76 143.28 465.68 143.28 466.36 142.46 466.36 141.41 465.86 142.03 466.59 141.76 466.99 140.24 466.61 140.15 467.18 140.98 467.85 140.42 468.21 140.01 468.07 140.36 468.74 140.12 469.43 140.78 469.29 140.94 469.7 140.27 469.94 139.72 469.78 139.16 470.18 139.18 471.15 138.94 471.52 138.55 471.51 138.61 471.87 138.25 472.21 138.93 472.18 139.13 472.52 139.41 471.8 139.45 472.93 138.88 472.68 138.24 472.94 138 472.81 136.91 474.4 136.87 473.9 136.64 474.11 135.78 474.24 135.31 474.86 134.24 474.71 134.41 475.47 133.7 475.57 133.73 475.96 131.9 476.58 131.4 476.28 131.67 476.79 130.76 477.08 130.76 477.38 130.17 476.91 128.74 477.82 129.26 478.5 128.52 478.47 128.59 478.93 128.33 479.28 127.49 479.02 127.56 479.72 124.08 480.71 124.17 481.46 123.71 481.92 123.57 481.43 123 482.19 122.36 484.18 120.76 486.04 119.78 486.36 115.29 485.55 114.23 484.99 114.46 484.76 113.8 484.94 113.62 485.46 113.03 485.71 112.43 485.54 112.29 486.11 111.23 485.74 110.27 486.54 110.32 486.75 109.33 487.36 109.14 488.09 108.34 488.98 107.96 488.78 107.03 489.22 106.69 490.21 106.06 489.94 105.81 490.93 104.69 491.45 104.83 491.73 104.58 492.04 104.93 492.57 104.16 492.17 103.61 492.29 103.34 492.71 103.02 492.9 102.59 492.62 102.92 493.24 102.4 494.14 102.05 494.1 101.46 494.68 99.68 495.04 99.91 495.35 99.76 495.97 99.47 496.08 98.82 495.63 98.63 496.1 98.18 496.35 98.43 497.02 98.29 497.38 97.48 497.67 96.02 499.2 94.36 499.91 94.06 499.82 93.98 499.43 93.38 499.53 92.69 500.59 92.01 500.86 92.17 501.17 91.68 501.67 91.7 502.03 90.55 501.74 88.97 502.58 88.32 501.46 87.11 502.05 86.58 502.02 85.59 500.93 84.5 500.85 84.01 501.36 82.99 501.34 82.96 502.25 81.3 503.59 81.42 503.94 80.9 503.73 80.82 504.41 80.18 504.83 80.32 505.35 79.72 505.38 79.05 506.76 78.47 507.31 77.68 507.49 77.3 507.48 76.99 506.95 76.74 508.08 76.52 507.83 76.7 507.47 76 507.8 75.68 508.63 76.04 509.43 74.55 511.93 74.24 511.86 74.17 512.19 73.69 512.42 73.06 512.21 73.11 512.64 72.81 512.9 72.51 512.7 71.75 512.93 71.58 513.27 71.26 512.97 71.11 513.24 71.34 513.73 70.72 513.78 70.85 514.41 70.33 514.47 70.22 514.79 69.48 514.89 68.64 515 68.61 515.15 68.55 515.18 68.16 514.89 65.64 514.66 65.62 514.44 64.65 514.93 63.87 514.45 62.48 515.01 62.61 515.22 62.24 515.32 62.1 516.31 61.75 516.36 61.32 516.98 60.19 516.91 60.28 517.26 59.22 518.03 55.51 516.05 52.69 516.6 51.32 517.71 51.36 518.85 50.76 519.25 50.98 519.5 50.38 520.93 49.71 520.93 49.61 521.29 49.1 520.94 48.35 520.92 46.87 521.39 46.67 522.34 46.08 522.6 46.16 523.66 45.5 524.08 45.46 524.51 45.2 524.49 45.21 524.91 44.8 525.31 45.06 525.87 44.63 526.14 43.15 526.3 42.83 525.03 41.84 524.86 41.77 524.85 41.74 524.76 41.31 523.62 41.46 522.56 39.89 521.41 39.86 520.64 41.54 520.67 41.92 520.09 42.87 519.85 43.02 519.34 44.68 519.2 45.44 518.42 45.78 516.8 45.23 516.02 45.76 514.86 46.95 514.55 46.98 513.62 47.65 512.9 47.73 511.99 49.51 510.27 49.52 509.89 50.15 509.62 51.08 508.68 51.13 506.23 50.85 505.53 51.53 505.04 51.82 502.96 51.37 501.67 50.19 501.04 49.49 499.98 48.6 499.86 48.87 498.02 47.51 496.57 46.53 496.27 46.24 495.86 46.62 494.46 45.63 493.05 45.17 492.93 45.29 492.62 45.05 492.48 46.19 491.77 47.35 491.44 47.57 490.85 47.78 490.3 48.54 489.5 48.45 488.03 48.15 487.65 48.56 486.86 48.59 485.6 48.16 484.87 48.63 484.67 48.7 484.52 49.02 483.11 48.66 482.75 48.66 482.36 47.39 481.63 46.88 480.73 47.04 480.5 47.41 479.97 47.24 479.51 47.53 479.44 48.19 479.26 48.52 478.92 48.6 479.38 49.15 479.47 49.97 479.05 50.03 478 49.54 477.49 50.3 476.5 50.35 476.05 49.09 474.55 50 473.58 50.32 472.37 50.13 471.9 49.5 471.79 49.86 471.6 49.98 471.04 49.65 470.82 50.02 470.55 49.46 469.86 50.49 470.27 50.75 470.23 50.96 469.66 50.51 468.87 48.91 468.03 49.26 467.38 49.06 466.96 49.62 466.68 49.66 466.27 49.39 465.65 48.13 464.73 47.89 464.24 48.21 463.09 49.05 462.63 49.1 461.52 47.8 460.3 48.47 459.31 49.26 461.12 50.36 461.23 50.67 461.42 52.13 461.05 53.08 460.14 54.22 460.02 54.82 459.63 54.94 457.75 55.22 457.27 56.03 456.87 55.97 456.21 56.43 455.55 56.41 455.17 55.91 454.7 54.63 454.97 54.05 454.72 53.48 454.23 53.35 453.39 52.76 453 52.04 449.92 51.04 449.27 49.54 449.37 49.81 448.12 49.48 447.68 48.59 447.59 48 447.97 47.46 447.93 47.1 447.62 46.88 446.81 45.55 446.69 44.41 445.75 45.06 443.59 44.21 442.71 43.15 442.87 42.04 443.66 41.66 443.65 41.23 442.65 40.1 442.27 40.31 440.87 39.95 440.12 38.73 439.57 37.36 440.13 34.68 439.46 33.77 438.78 33.72 437.48 33.39 436.95 32.24 436.98 30.72 435.98 29.28 435.8 28.42 435.25 28.94 434.8 29.38 434.4 29.83 434.94 30.28 434.85 31.59 433.04 31 432.02 30.21 432.29 29.78 432.02 31.5 430.89 32.48 429.64 32.78 428.61 32.09 427.8 32.32 426.18 32.27 426.05 32.25 425.99 31.81 425.36 30.95 425.08 28.24 423.22 28.7 422.01 28.71 420.01 30.66 416.65 30.93 415.56 29.68 414.4 28.13 414.26 27.96 413.71 28.67 412.67 27.12 411.73 27.8 411.01 31.29 410.04 31.72 409.62 30.66 407.7 29.25 408 28.34 407.35 28.51 406.8 30.6 405.47 30.75 404.96 30.72 404.84 30.56 404.25 29.19 403.73 28.82 403.21 29.36 402.82 30.28 400.89 31.81 399.66 32.1 399.31 32.41 398.89 34.52 397.79 36.53 395.69 36.31 395.19 34.78 393.87 32.43 394.23 31.95 393.92 31.33 393.98 30.79 393.5 30.54 392.85 30.85 391.79 30.33 390.59 31.47 389.65 32.11 388.63 31.85 388.41 31.97 387.64 31.35 387.47 31.2 387.15 31.55 386.79 32.79 386.47 33.06 385.91 31.8 384.57 31.55 383.48 30.22 383.69 30.26 383 32.12 381.62 32.44 380.85 34.2 380.06 35.87 379.54 37.09 379.49 38.71 378.86 39.3 378.02 40.39 377.57 41.75 375.52 42.66 375.36 45.39 373.71 45.95 371.47 45.93 371.35 45.88 370.86 45.32 370.75 45.13 370.31 44.18 369.97 42.95 370.63 42.17 370.71 40.38 371.76 39.57 371.62 39.08 372.26 35.72 373.95 33.16 374.57 32.14 374.33 30.62 375.82 28.44 376.73 27.97 376.53 27.36 376.73 26.72 375.07 26.64 374.13 25.86 374.04 24.51 373.24 25.83 371.57 25.64 370.39 25.86 369.37 23.4 369.31 23.32 369.05 24.1 368.26 24.64 367.16 24.8 366.08 25.4 365.62 25.69 364.69 25.52 363.8 24.96 363.78 24.62 363.48 25.44 362.63 24.99 361.91 26.25 361.39 26.37 361.12 26.16 359.84 26.12 359.71 25 359.17 24.66 358.05 23.98 357.25 25.63 355.52 26.07 354.57 26.43 353.74 27.26 352.97 27.39 352.5 27.21 352.24 27.66 351.79 27.83 350.75 29.4 350.05 30 349.38 30.41 349.57 31.04 349.23 32.28 349.92 32.86 349.49 33.79 349.33 34.23 348.78 35.58 348.3 36.19 347.7 37.1 347.75 38.33 346.88 39.35 346.57 39.63 346.26 39.62 345.49 40.33 344.38 40.25 343.18 40.25 343.18 39.36 342.56 38.32 342.51 34.78 343.63 33.7 343.75 31.96 344.94 28.35 344.3 27.65 344.53 27.34 345.13 25.38 345.67 26.34 343.3 25.94 342.35 26.83 341.4 26.96 340.1 26.32 338.61 27.83 337.65 28.69 336.44 28.09 335.66 27.9 334.91 27.25 334.44 27.47 333.43 27.06 332.69 27.7 332.02 27.62 331.03 27.55 330.84 27.29 330.13 28.28 329.23 28.49 327.49 27.57 326.62 26.79 326.58 26.83 326.06 26.28 325.61 26.95 324.56 28.44 323.68 29.12 322.74 28.76 321.99 27.98 321.78 27.81 321.34 26.52 320.84 27.84 317.9 27.32 317.19 28.38 316.21 28.97 314.28 29.18 314.26 29.97 314.18 31.45 313.4 33.42 312.93 36.63 312.79 37.31 311.65 36.52 310.22 37.16 309.27 36.7 308.57 34.58 308.81 31.38 310.44 29.28 310.12 29.38 307.46 29.84 306.55 29.82 305.8 29.17 304.68 29.16 304.66 28.49 303.75 27.79 303.89 27.05 303.63 26.31 304.14 25.67 303.99 25.39 303.19 26.06 302.58 26.19 301.57 26.87 301.13 26.06 300.23 24.75 299.36 23.82 299.34 23.21 298.5 23.17 298.43 22.59 297.84 21.66 297.88 21.61 297.36 21.88 297.06 21.73 296.58 22.14 296.12 23.79 295.62 23.85 295.08 23.46 294.81 21.82 294.75 19.95 294.16 20.53 293.07 20.59 292.36 19.42 290.97 20.56 290.39 21.08 289.03 20.42 288.3 20.39 287.14 18.65 286.68 19.45 285.55 19.27 285.13 18.73 284.86 18.75 284.57 19.56 284.09 19.87 283.5 20.28 282.06 20.19 281.11 20.57 280.23 20.44 279.25 20.4 279.24 19.07 278.76 19.39 278.02 18.85 277.21 19.52 276.34 19.36 275.68 18.11 274.7 18.3 273.6 20.01 272.76 20.01 271.89 21.37 270.1 22.39 269.63 23.93 268.25 26.1 267.59 29.81 267.45 32.74 266.12 34.14 266.05 35.5 264.53 35.8 263.82 35.32 262.79 34.39 262.49 33.44 262.81 32.51 263.64 30.58 263.95 29.15 263.64 26.92 262.65 24.35 263.63 23.67 263.49 21.75 262.38 20.64 262.53 19.93 261.3 20.18 260.19 20.02 258.8 20.4 258.65 21.43 259.24 22.04 258.75 21.78 257.68 22.79 257.22 23.28 256.17 22.98 254.91 23.82 254.23 23.98 253.66 22.7 253.33 22.05 252.34 21.31 252.76 20.22 252.85 20.02 252.13 20.59 251.71 23.46 251.05 25.05 248.46 25.95 248 26.22 247.57 26.15 246.48 25.63 245.14 24.57 243.82 24.59 242.73 25.39 242.32 26.42 242.58 27.52 242.15 28.42 242.23 29.16 241.99 31.86 243.83 33.57 244.43 34.57 244.65 35.48 244.4 37.15 244.78 38.85 243.96 42.38 243.66 42.68 243.15 42.34 242.28 42.4 242.06 41.73 241.51 39.25 240.67 38.15 240.97 36.8 240.9 36.18 240.29 34.57 240.81 33.34 240.54 32.51 240 32.11 238.87 31.51 238.09 30.73 237.63 28.97 236.96 28.07 237.01 26.54 236.54 24.7 235.61 22.14 236.03 21.06 235.31 19.48 235.22 18.52 235.25 17.8 235.74 17.06 235.81 16.6 235.59 15.84 234.57 14.39 233.68 13.39 233.65 12.6 233.98 11.76 233.81 11.21 232.93 9.96 232.5 8.57 231.25 8.05 229.88 8.17 227.29 7.94 226.49 6.54 225.74 6.32 225.38 6.29 223.23 5.32 222.74 3.4 222.11 2.2 220.61 1.91 218.63 1.56 217.58 1.09 217.1 1 216.1 1.62 215.73 2.36 214.23 1.58 213.49 3.73 212.77 10.12 209.66 11.07 209.52 12.3 208.44 13.78 205.7 14.23 200.72 16.25 196.32 17.47 195.05 17.77 193.49 18.03 193.08 19.67 192.02 21.03 190.53 23.51 189.04 24.4 187.87 27.05 186.24 27.04 185.52 26.08 183.44 25.96 183.16 26.53 181.65 27.35 179.86 29.67 178.98 30.91 178.28 31.23 177.8 31.25 177.48 31.43 177.07 31.4 175.32 29.66 174.96 29.54 174.56 32.16 172.68 34.14 171.65 34.44 169.63 34.45 169.45 34.58 169.1 32.62 166.56 32.7 166.18 34.4 164.78 34.5 164.38 35.93 163.86 36.57 164.06 36.96 164.64 38.45 164.04 40.43 163.75 41.7 162.66 43.15 162.86 44.13 162.52 44.53 161.79 44.49 160.31 46.39 159.92 47.11 159.54 47.22 157.84 47.88 157.35 49.61 157.34 50.41 156.84 51.42 156.73 52.13 155.26 56.45 152.45 56.92 151.45 57.94 150.54 59.72 149.73 62.1 149.87 62.62 149.5 63.25 147.66 63.17 147.3 62.37 146.24 62.39 145.19 62.64 144.22 63.35 143.61 64.98 143.01 68.6 142.95 69.59 142.21 70.71 140.24 71.45 137.69 72.15 136.57 72.78 136.05 72.89 135.59 72.73 132.3 72.12 130.18 72.57 129.41 72.64 128.51 71.35 128.51 70.8 127.61 71.32 127.39 72.28 127.74 73.78 127.45 74.98 126.83 76.59 125.42 77.33 125.33 80.14 123.91 80.92 124.09 81.82 124.84 82.93 126.37 83.09 127.97 82.67 129.9 82.94 131.21 83.78 132.41 86.15 133.97 86.41 134.77 86.45 137.07 86.95 137.9 88.92 138.97 89.4 139.28 90.28 140.09 91.57 141.91 93.64 143.54 93.99 144.38 93.67 147 94.09 148.77 95.7 149.71 96.28 150.36 96.14 150.94 95.77 151.8 95.7 151.95 93.58 153.6 92.31 155.08 93.02 156.49 92.85 157.75 92.31 158.9 92.85 159.92 93.13 160.49 93.2 164.08 94.02 165.34 94.88 165.83 96.39 166.02 97.16 166.33 98.24 168.02 99.26 172.62 102.06 174.81 104.64 175.23 106.27 176.06 107.13 178.84 107.97 179.65 110.11 179.27 110.12 179.95 110.4 180.27 115.22 180.96 118.13 181.09 119.01 181.56 120.45 181.03 121.51 181.07 122.29 181.68 123.32 181.98 123.68 182.57 124.83 183.11 125.93 184.51 127.06 184.7 127.61 184.46 129.26 185.05 129.7 185.75 132.6 187.96 134.25 186.65 134.94 186.5 135.23 185.94 136.25 185.89 137.86 184.56 138.54 184.5 138.88 185.62 139.38 185.72 140.49 184.41 141.05 183.83 141.32 183.71 141.97 183.41 142.18 182.98 142.03 181.55 143.77 178.58 144.54 178.23 146.04 178.29 146.16 176.95 146.65 176.52 148.23 175.64 148.78 175.39 149.72 174.88 151.8 175.5 153.17 174.79 153.55 174.05 153.66 172.66 153.02 169.49 153.44 168.54 154.43 168.38 154.94 168.37 155.44 168.31 156.1 168.28 156.48 168.1 157.46 167.4 157.9 166.96 159.27 164.83 160.18 164.39 162.27 164.53 164.52 166.19 165.9 166.26 168.07 165.37 169.09 163.5 169.67 162.94 170.65 162.82 172.22 163.34 174.15 162.8 174.35 162.58 174.67 162.36 178.4 158.38 179.28 158.31 180.73 158.98 181.58 159.95 183.2 162.86 184.68 164.23 186.44 164.44 188.24 163.49 189 163.5 190.22 164.53 191.37 164.76 192.36 165.65 192.81 165.75 194.41 165.42 195.27 164.76 196.65 162.09 197.42 161.66 198.86 161.43 199.6 160.83 199.82 160.16 201.3 154.99 202.04 153.97 202.97 153.26 203.27 152.59 202.49 150.19 202.92 148.17 203.01 147.94 203.46 147.33 204.68 147.12 208.44 148.78 211.73 148.66 211.86 148.29 211.94 145.46 213.03 144.38 213.47 143.15 214.28 142.33 Z" id="undefined" data-ddd="77" fill="rgba(1, 40, 66, 1)" stroke="rgba(0, 153, 255, 1)" stroke-width="2"/>
<path d="M 673.36 77.66 673.37 77.64 674.46 78.6 677.04 79.13 680.1 80.29 681.89 79.55 682.51 80.38 685.94 82.67 686.39 83.07 686.66 83.87 687.38 83.59 687.82 83.72 688.69 85.06 689.78 85.88 690.39 87.28 690.91 87.29 693.36 86.28 696.13 86.72 698.07 87.75 699.32 88.69 699.66 89.43 700.14 90.3 700.42 90.8 706.27 94.73 707.49 95.17 715.25 95.94 718.45 96.8 719.08 96.99 720.83 98.22 723.37 98.86 724.5 99.34 726.62 101.48 728.49 102.03 729.41 102.3 731.06 103.81 731.86 105.28 732.52 106.67 733.29 107.36 733.3 107.37 734 107.64 736.56 107.53 739.75 107.75 741.33 108.76 745.79 112.85 747.81 114.44 748.73 114.63 749.35 114.42 751.26 113.63 752.31 113.71 754.22 114.93 754.69 115.99 755.09 117.5 754.9 118.87 754.88 119.43 755.05 120.04 755.24 121 755.4 121.32 756.1 122.73 757.11 123.74 757.81 125.5 758.64 126.25 760.93 126.78 761.29 126.89 762.22 127.83 763.5 128.19 763.57 129.09 763.61 129.24 763.62 129.54 763.73 130.26 763.91 130.54 764.41 131.26 765.86 132.33 766.64 132.72 768.25 132.95 769.1 133.11 770.72 133.57 771.14 134.01 770.72 134.71 771.63 135.16 772.25 135.15 773.51 136.16 773.62 136.19 774.83 136.59 774.89 136.61 776.47 136.93 776.45 136.7 777.17 136.49 778.39 136.19 779.61 135.15 780.71 135.43 780.92 135.48 781.65 136.26 782.35 137.1 783.6 137.91 783.77 139.04 785.11 140.37 785.56 141.09 785.47 142.37 785.43 144.01 785.97 146.18 785.68 148.05 787.16 149 787.7 148.44 789.72 148.32 789.93 148.44 789.21 148.63 788.98 149.28 789.93 149.26 791.5 148.58 791.55 148.55 791.7 148.49 793.56 147.22 794.11 147.28 795.81 148.36 796.14 148.67 796.49 149.44 797.66 152.06 798.43 153.88 799 154.42 799 154.44 799 154.82 798.53 155.42 798.53 156.06 798.03 155.88 795.74 156.15 790.9 157.5 783.32 160.56 781.31 161.48 778.39 163.68 776.6 164.94 772.84 166.42 770.69 167.78 766.66 170.46 763.57 173.13 763.08 173.51 756.57 180.37 754.48 182.96 752.15 185.96 749.64 189.6 749.64 190.72 747.31 193.37 741.47 201.73 739.64 205.37 739.4 205.83 739.83 206.21 735.9 210.51 731.3 216.05 729.74 218.52 728.81 220.44 726.76 226.83 726.27 227.21 725.93 228.25 724.94 228.13 724.15 228.04 722.73 228.78 722.55 228.99 721.68 230.11 720.74 231.13 719.53 232.15 717.01 233.82 716.02 234.18 712.23 234.56 711.54 235.19 711.26 236.28 708.52 236.22 708.27 236.58 707.78 235.88 707.67 235.83 707.48 235.74 707.25 235.64 706.8 235.98 707 236.31 706.56 236.6 705.97 235.81 706.5 235.15 705.97 234.85 705.66 234.74 704.6 235.68 704.15 235.38 703.83 235.57 703.6 235.5 702.65 234.84 702.35 233.97 701.93 233.94 701.47 234.42 700.82 233.96 700.71 234.75 700.38 235.09 699.79 235.14 700.02 235.93 699.22 237.14 699.37 237.52 699.01 237.81 698.3 237.38 697.94 237.7 697.05 237.41 697.33 236.07 696.78 235.7 696.13 236.6 695.53 236.45 694.9 236.66 694.67 235.5 693.3 235.52 692.41 234.5 691.52 234.98 691.16 234.43 689.99 234.41 689.61 233.98 689.26 234.19 689.08 234.08 688.16 233.65 687.77 232.83 688.56 232.31 688.11 231.94 687.32 231.87 686.52 231.17 686.13 231.1 685.49 230.18 684.99 230.04 684.84 230.24 684.21 229.82 684.32 228.84 685.07 228.81 685.19 228.59 685.44 228.1 685.31 227.97 685.26 227.91 683.93 228.04 683.83 227.61 682.94 227.34 683.34 227 684.12 226.95 683.3 226.63 682.73 226.73 682.1 227.58 681.93 227.36 681.45 227.66 681.27 226.94 680.91 226.86 681.14 226.52 681.04 225.62 680.48 225.56 680.19 225.07 679.16 225 679.26 225.55 678.69 225.91 678.58 226.48 678.01 226.57 678.09 226.13 677.21 225.52 677.06 225.3 677.39 225.02 677.3 224.39 676.74 224.48 676.59 224.94 676.18 224.89 676.34 224.2 676.13 223.99 675.36 224.23 675.11 223.57 675.85 223.37 676.07 223.26 675.98 222.61 675.55 222.49 675 220.68 674.53 220.16 674.15 220.32 673.64 220.09 673.75 219.72 674.47 219.44 674.55 219.39 673.76 218.78 673.76 218.62 673.76 218.61 673.83 218.61 674.26 218.63 674.31 218.3 674.28 218.25 674.22 217.91 674.01 217.93 673.51 217.19 673.37 216.42 673.37 216.11 674.28 215.2 674.14 214.83 674.7 214.58 673.96 213.75 674.64 213.26 674.85 213.1 674.89 212.97 674.85 212.84 674.62 212.71 674.4 212.91 674.13 212.29 674.68 212.05 674.36 211.32 675.35 210.86 675.38 210.26 675.04 209.91 675.25 209.54 675.1 209.05 675.63 208.75 675.31 208.49 674.68 208.82 673.91 208.43 673.47 208.85 673.39 208.79 671.44 207.27 670.88 207.48 669.88 207.36 667.94 205.42 668.27 205.02 667.89 204.49 668.27 203.75 668.2 203 667.93 202.68 666.88 202.56 666.49 202.28 666.5 201.84 666.19 201.56 666.14 201.51 666.15 201.11 666.68 200.82 667.42 199.35 667.14 198.46 666.82 198.51 666.3 197.85 666.26 197.23 665.86 197.2 665.37 196.63 665.54 196.22 665.07 195.22 665.3 194.69 665.21 194.39 663.75 193.88 663.39 194.73 662.69 194.46 662.11 193.46 659.89 192.37 659.29 190.97 658.89 190.75 659.26 189.71 659.38 189.41 659.24 189.02 657.96 188.68 657.83 187.79 657.4 187.52 656.89 188.18 656.57 187.84 655.71 186.96 655.5 185.43 654.85 184.15 654.76 182.65 654.93 181.99 655.5 181.63 654.91 180.08 654.45 179.68 654.95 178.98 654.75 177.96 655.14 177.3 655.58 177.3 656.35 176.18 657 174.71 656.65 173.78 656.68 172.63 656.65 171.89 657.09 170.81 657.75 170.71 659.6 170.3 660.19 170.93 661.02 170.95 661.62 171.38 662.62 171.54 663.85 171.58 664.41 170.81 665.58 170.99 666.39 170.29 667 170.54 667.68 171.12 668.69 170.84 669.08 170.78 669.78 170.97 670.23 171.59 670.41 171.84 670.97 172.57 671.36 173.09 671.81 175.09 673.64 175.13 675.77 174.36 678.35 173.33 688.15 169.41 686.87 161.11 686.86 161.08 687.22 160.77 686.78 160.66 686.85 160.2 686.48 160.05 686.66 159.23 686.14 158.88 686.07 158.37 686.76 158.51 687.06 158.22 686.95 157.72 687.34 157.49 687.64 157.56 687.72 157.58 687.5 156.92 687.98 155.74 688.22 155.16 687.89 154.81 687.6 153.3 684.63 148.76 685.04 148.64 685.25 147.95 685.07 147.21 686.33 146.78 685.92 146.58 686.07 145.91 686.62 145.55 686.2 145.08 686.58 145.15 686.84 144.74 687.36 144.98 687.52 144.54 688.22 144.06 688.64 144.1 690.21 143.15 690.49 142.5 692.17 142.36 694.25 141.6 693.97 140.64 693.81 140.27 691.92 130.8 690.79 130.15 690.57 129.58 691.24 126.78 691.08 126.14 689.37 123.99 689.21 123.62 687.6 119.96 687.38 118.28 687.37 118.18 687.38 118.09 687.38 117.95 687.44 116.79 686.76 115.56 685.56 114.95 683.35 113.83 682.89 113.98 681.01 113.66 679.83 113.49 679.3 112.8 678.57 112.83 677.32 113.28 676.74 113.17 676.01 112.46 674.57 109.39 673.81 108.99 673.8 108.53 674.74 106.89 674.99 105.25 675.66 104.2 675.74 103.63 675.46 103.16 675.61 102.22 676.25 101.43 676.23 101.13 675.5 100.94 673.81 100.14 672.29 98.9 672.06 98.16 671.43 98.01 670.67 95.94 670.59 94.79 670.52 94.43 670.3 93.64 670.3 93.33 670.33 91.29 670.51 91.03 671.68 90.74 671.9 89.48 673.08 88.31 673.86 88.21 674.25 88.7 674.58 87.97 674.4 87.52 673 87.11 672.95 86.75 672.39 86.57 672.17 86.11 670.87 85.26 670.47 84.47 670.75 82.8 670.44 82.19 671.15 81.78 671.47 82.34 671.66 81.76 672.15 81.45 672.22 80.56 671.83 80.3 671.92 79.67 672.55 79.2 672.6 78.68 673.36 77.66 Z" id="5" data-ddd="79" fill="rgba(1, 40, 66, 1)" stroke="rgba(0, 153, 255, 1)" stroke-width="2"/>
</g>
</svg>